<svg xmlns="http://www.w3.org/2000/svg" viewBox="0 0 500 500"><g id="freepik--background-complete--inject-36"><path d="M160.24,33.94c43.43-.67,91.71-.65,135.17,0-43.47.64-91.73.66-135.17,0Z" style="fill:#ebebeb"></path><path d="M144.94,52.25c44.75-.66,94.49-.65,139.26,0-44.78.65-94.5.67-139.26,0Z" style="fill:#ebebeb"></path><path d="M174.24,33.94a81.83,81.83,0,0,1,0,18.31,81.24,81.24,0,0,1,0-18.31Z" style="fill:#ebebeb"></path><path d="M242.41,33.94a81.83,81.83,0,0,1,0,18.31,81.24,81.24,0,0,1,0-18.31Z" style="fill:#ebebeb"></path><path d="M208.32,52.17a81.33,81.33,0,0,1,0,18.32,81.92,81.92,0,0,1,0-18.32Z" style="fill:#ebebeb"></path><path d="M207.5,338.53c43.43-.66,91.7-.65,135.16,0-43.46.65-91.72.66-135.16,0Z" style="fill:#ebebeb"></path><path d="M175.09,356.85c44.75-.67,94.49-.65,139.26,0-44.78.65-94.5.67-139.26,0Z" style="fill:#ebebeb"></path><path d="M337.25,320.34c27.91-.66,58.79-.66,86.71,0-27.92.66-58.8.66-86.71,0Z" style="fill:#ebebeb"></path><path d="M367.93,338.53c27.91-.66,58.8-.66,86.72,0-27.92.66-58.8.66-86.72,0Z" style="fill:#ebebeb"></path><path d="M242.44,338.53a81.92,81.92,0,0,1,0,18.32,81.33,81.33,0,0,1,0-18.32Z" style="fill:#ebebeb"></path><path d="M310.64,338.53a81.92,81.92,0,0,1,0,18.32,81.33,81.33,0,0,1,0-18.32Z" style="fill:#ebebeb"></path><path d="M378.84,338.53a81.92,81.92,0,0,1,0,18.32,81.33,81.33,0,0,1,0-18.32Z" style="fill:#ebebeb"></path><path d="M447,338.53a81.92,81.92,0,0,1,0,18.32,81.92,81.92,0,0,1,0-18.32Z" style="fill:#ebebeb"></path><path d="M208.32,356.77a81.24,81.24,0,0,1,0,18.31,81.83,81.83,0,0,1,0-18.31Z" style="fill:#ebebeb"></path><path d="M276.63,356.77a81.24,81.24,0,0,1,0,18.31,81.83,81.83,0,0,1,0-18.31Z" style="fill:#ebebeb"></path><path d="M413.26,319.83a81.92,81.92,0,0,1,0,18.32,81.33,81.33,0,0,1,0-18.32Z" style="fill:#ebebeb"></path><path d="M148.35,320.34c-26.16.67-53.81.66-80,0,26.2-.66,53.83-.67,80,0Z" style="fill:#ebebeb"></path><path d="M40.33,338.53c27.91-.66,58.8-.66,86.72,0-27.93.66-58.8.66-86.72,0Z" style="fill:#ebebeb"></path><path d="M51.24,338.53a81.92,81.92,0,0,1,0,18.32,81.33,81.33,0,0,1,0-18.32Z" style="fill:#ebebeb"></path><path d="M119.44,338.53a81.92,81.92,0,0,1,0,18.32,81.92,81.92,0,0,1,0-18.32Z" style="fill:#ebebeb"></path><path d="M85.66,319.83a81.92,81.92,0,0,1,0,18.32,81.33,81.33,0,0,1,0-18.32Z" style="fill:#ebebeb"></path><path d="M213.25,161.23c44.75-.66,94.49-.65,139.27,0-44.79.65-94.51.67-139.27,0Z" style="fill:#ebebeb"></path><path d="M261.47,179.55c30.06-.67,63.5-.65,93.59,0-30.1.65-63.52.66-93.59,0Z" style="fill:#ebebeb"></path><path d="M310.72,142.92a81.83,81.83,0,0,1,0,18.31,81.83,81.83,0,0,1,0-18.31Z" style="fill:#ebebeb"></path><path d="M276.63,161.23a81.33,81.33,0,0,1,0,18.32,81.92,81.92,0,0,1,0-18.32Z" style="fill:#ebebeb"></path><path d="M344.8,161.23a81.33,81.33,0,0,1,0,18.32,81.33,81.33,0,0,1,0-18.32Z" style="fill:#ebebeb"></path><path d="M192.22,232.56c19.26-.68,38.66-.68,57.93,0-19.27.67-38.67.67-57.93,0Z" style="fill:#ebebeb"></path><path d="M178.67,250.87c30.07-.66,63.5-.65,93.59,0-30.09.65-63.52.67-93.59,0Z" style="fill:#ebebeb"></path><path d="M208.35,214.24a81.33,81.33,0,0,1,0,18.32,81.92,81.92,0,0,1,0-18.32Z" style="fill:#ebebeb"></path><path d="M242.44,232.56a81.83,81.83,0,0,1,0,18.31,81.24,81.24,0,0,1,0-18.31Z" style="fill:#ebebeb"></path><path d="M57.42,33.94V261.5H182.59V33.94ZM176.91,255.83H63.09V39.61H176.91Z" style="fill:#ebebeb"></path><rect x="63.09" y="39.61" width="113.82" height="216.21" style="fill:#fff"></rect><rect x="63.09" y="149.43" width="113.82" height="5.67" transform="translate(240 304.54) rotate(180)" style="fill:#ebebeb"></rect><rect x="46.96" y="261.5" width="146.07" height="16.29" transform="translate(240 539.29) rotate(180)" style="fill:#dbdbdb"></rect><path d="M63.09,39.61H176.91V185.39H63.09Zm108.56,5.25H68.35V180.13h103.3Z" style="fill:#dbdbdb"></path><rect x="138.15" y="39.61" width="2.84" height="140.53" style="fill:#dbdbdb"></rect><rect x="99.01" y="39.61" width="2.84" height="140.53" style="fill:#dbdbdb"></rect><path d="M317.42,33.94V261.5H442.59V33.94ZM436.91,255.83H323.1V39.61H436.91Z" style="fill:#ebebeb"></path><rect x="323.1" y="39.61" width="113.82" height="216.21" style="fill:#fff"></rect><rect x="323.09" y="149.43" width="113.82" height="5.67" transform="translate(760 304.54) rotate(180)" style="fill:#ebebeb"></rect><rect x="306.97" y="261.5" width="146.07" height="16.29" transform="translate(760 539.29) rotate(180)" style="fill:#dbdbdb"></rect><path d="M323.09,39.61H436.91V185.39H323.09Zm108.56,5.25H328.35V180.13h103.3Z" style="fill:#dbdbdb"></path><rect x="398.15" y="39.61" width="2.84" height="140.53" style="fill:#dbdbdb"></rect><rect x="359.01" y="39.61" width="2.84" height="140.53" style="fill:#dbdbdb"></rect></g><g id="freepik--Floor--inject-36"><polygon points="44.45 471.3 95.84 471.06 147.23 470.97 250 470.8 352.77 470.97 404.16 471.06 455.55 471.3 404.16 471.55 352.77 471.63 250 471.8 147.23 471.63 95.84 471.55 44.45 471.3" style="fill:#263238"></polygon></g><g id="freepik--Hearts--inject-36"><path d="M238.35,64.49c-1.39,7.82-8.26,14.22-8.26,14.22s-9.24-1.69-14.62-7.54C211,66.3,211,59.62,215,57c5.82-3.79,10.71,6.85,10.71,6.85s-1.61-11.6,5.34-11.53C235.92,52.33,239.51,58,238.35,64.49Z" style="fill:#065F46"></path><path d="M252,101.13c-4.83,3.28-11.74,3-11.74,3s-3.85-5.74-3.54-11.57C237,87.64,240.51,84.2,244,85c5,1.12,1.89,9.15,1.89,9.15s5.28-6.8,8.82-3.11C257.17,93.6,256,98.38,252,101.13Z" style="fill:#065F46"></path><path d="M259.33,36.77c-1.95,3.34-6.17,5.11-6.17,5.11s-3.94-2.33-5.41-5.91c-1.23-3-.11-6,2.19-6.56,3.3-.75,3.74,4.93,3.74,4.93s1.21-5.57,4.38-4.37C260.27,30.81,261,34,259.33,36.77Z" style="fill:#065F46"></path></g><g id="freepik--character-1--inject-36"><path d="M53.89,470.6c2.94,1,87.24.77,90.45-1.27,1.22-.77,1.91-13,2.31-27.9.09-3.21.17-6.53.22-9.89l3.43-45-56.35,0-1.92,45,.28,9.89s-32.24,14.51-35.52,17.13S50.94,469.62,53.89,470.6Z" style="fill:#774442"></path><path d="M53.89,470.6c2.94,1,87.24.77,90.45-1.27,1.48-.94,2.19-18.87,2.53-37.79l-54.84,0,.28,9.89s-32.24,14.51-35.52,17.13S50.94,469.62,53.89,470.6Z" style="fill:#fff"></path><path d="M53.89,470.6c2.94,1,87.24.77,90.45-1.27,1.22-.77,1.91-13,2.31-27.9l-54.34,0s-32.24,14.51-35.52,17.13S50.94,469.62,53.89,470.6Z" style="fill:#065F46"></path><path d="M55.09,467.22c14.13-.38,71.15-.58,85.15.11.11,0,.11.09,0,.09-14,.69-71,.43-85.15,0C54.79,467.44,54.79,467.23,55.09,467.22Z" style="fill:#263238"></path><path d="M86.83,442.82c5.65-.09,12.22,1.89,15.74,6.5.14.18-.12.37-.29.29a77.64,77.64,0,0,0-15.55-6.1A.35.35,0,0,1,86.83,442.82Z" style="fill:#263238"></path><path d="M82.47,444.53c5.65-.09,12.21,1.89,15.74,6.51.14.18-.12.37-.29.28a77.85,77.85,0,0,0-15.55-6.09A.36.36,0,0,1,82.47,444.53Z" style="fill:#263238"></path><path d="M78.1,446.24c5.66-.09,12.22,1.89,15.75,6.51.14.18-.12.37-.29.28A78.45,78.45,0,0,0,78,446.94.36.36,0,0,1,78.1,446.24Z" style="fill:#263238"></path><path d="M225.28,179.78S159.46,296.1,158.27,304c-1.83,12.17-7.64,138.39-7.64,138.39L90,441.64s5.41-108.23,14-143.39C110.24,272.92,162,186.7,162,186.7Z" style="fill:#37474f"></path><path d="M94,430c9.26-.06,42.07-.43,54.39.8.1,0,.09.17,0,.19-4.24.64-45.14-.4-54.39-.72A.14.14,0,0,1,94,430Z" style="fill:#263238"></path><path d="M140.64,424.89c2.29-41.17,4.28-84.37,7.5-125.51,1.79-4.56,4.2-8.84,6.41-13.2,7.25-13.8,14.72-27.48,22.23-41.13s22.81-40.9,30.49-54.37L177.5,245.44c-7.87,14.72-20.16,36.84-27.32,51.61a11.26,11.26,0,0,0-1.26,3.49c-2.61,36-5.75,87.81-8.28,124.35Z" style="fill:#263238"></path><path d="M177.1,470.36c3.11,0,85-28,87.35-30.93a1.06,1.06,0,0,0,.16-.58c.14-2.75-4.87-12.7-8.79-25.59-.25-.83-2.11-4.69-4.69-9.91C244,389,231.41,364.44,231.41,364.44L177.93,382.3l22.95,38.88,3.39,9.29s-26,24-28.24,27.52S174,470.37,177.1,470.36Z" style="fill:#774442"></path><path d="M177.1,470.36c3.11,0,85-28,87.35-30.93a1.06,1.06,0,0,0,.16-.58c.14-2.75-4.87-12.7-8.79-25.59-.25-.83-2.11-4.69-4.69-9.91l-50.25,17.83,3.39,9.29s-26,24-28.24,27.52S174,470.37,177.1,470.36Z" style="fill:#fff"></path><path d="M177.1,470.36c3.11,0,85-28,87.35-30.93.92-1.11-2.05-12.24-8.63-26.17l-51.55,17.22s-26,24-28.25,27.51S174,470.37,177.1,470.36Z" style="fill:#065F46"></path><path d="M177.17,466.78c13.28-4.85,67.29-23.14,80.79-26.92.11,0,.13.05,0,.09C244.93,445,190.77,462.89,177.24,467,177,467.08,176.89,466.88,177.17,466.78Z" style="fill:#263238"></path><path d="M199.53,433.56c5.33-1.88,12.18-2.08,17,1.18.19.12,0,.39-.18.36a78.23,78.23,0,0,0-16.68-.85A.35.35,0,0,1,199.53,433.56Z" style="fill:#263238"></path><path d="M195.94,436.57c5.33-1.88,12.18-2.09,17,1.17.19.13,0,.39-.18.37a77.58,77.58,0,0,0-16.68-.85A.35.35,0,0,1,195.94,436.57Z" style="fill:#263238"></path><path d="M192.34,439.58c5.34-1.88,12.19-2.09,17,1.17.18.13,0,.39-.19.36a78.19,78.19,0,0,0-16.68-.84A.36.36,0,0,1,192.34,439.58Z" style="fill:#263238"></path><path d="M200.36,431.67,258,410.31s-53.73-109.64-53.82-117.62c-.09-7.06,35.74-71.35,37.26-83.06,2.48-19.18-7.94-35.42-17.61-45.24L162,186.7s5.81,10.56,15.54,16.79c0,0-34.93,69.07-34.39,90.94S200.36,431.67,200.36,431.67Z" style="fill:#37474f"></path><path d="M197.89,419.12c8.67-3.17,6.14-2.38,14.85-5.45,4.26-1.5,32.26-11.35,36.48-12.06a.1.1,0,0,1,.06.18c-3.77,2-31.94,11.39-36.23,12.81-8.76,2.9-6.28,2-15.07,4.78A.14.14,0,0,1,197.89,419.12Z" style="fill:#263238"></path><path d="M167.64,201.64a114.94,114.94,0,0,1,18.06,7,.2.2,0,0,1-.15.36c-6.07-2.15-12.26-4.19-18.2-6.65A.38.38,0,0,1,167.64,201.64Z" style="fill:#263238"></path><path d="M174.94,199.56a26.65,26.65,0,0,1,1.37,3.32,7.41,7.41,0,0,1,.64,2.76c0,.18-.26.21-.36.09a9.77,9.77,0,0,1-1.38-2.64c-.46-1-.94-2-1.36-3.08C173.56,199.32,174.61,198.9,174.94,199.56Z" style="fill:#263238"></path><path d="M174.52,193.84c-.32-1-.64-1.9-1-2.84s-.76-1.95-1-2.95c0-.15-.29-.06-.24.1.32.95.5,1.95.75,2.93s.5,1.95.76,2.92c.5,1.81,1.12,3.62,1.79,5.37a6.57,6.57,0,0,1-2.87-.66,5.24,5.24,0,0,1-1.91-2.57c-.48-1.07-.91-2.16-1.4-3.23a22.15,22.15,0,0,1-1.48-3.6c0-.15-.29-.06-.24.1a40.72,40.72,0,0,0,2.8,7.62c.51,1,.91,1.94,1.91,2.36a8.67,8.67,0,0,0,3.43.43c.14,0,.33,0,.29-.21C175.65,197.68,175.15,195.72,174.52,193.84Z" style="fill:#263238"></path><path d="M176.44,205.75c-2.1,4.5-4.55,8.86-6.81,13.28s-4.29,8.7-6.32,13.11q-6.18,13.35-11.21,27.21-2.49,6.84-4.64,13.79a103.21,103.21,0,0,0-3.6,14.17c-.76,4.83-1,7.06-.25,11.89,1.15,7.08,11.58,38.57,17.08,48.46.18.33.73,0,.58-.31-4-9.17-17.55-44.17-16.65-54.09a105.73,105.73,0,0,1,3.59-16.87q2.06-7,4.51-14c3.19-9.09,6.89-18,10.67-26.84,2.12-5,4.37-9.87,6.52-14.82s4.26-10.07,6.75-14.91C176.73,205.71,176.5,205.61,176.44,205.75Z" style="fill:#263238"></path><path d="M221.74,193.19c-1.16-.11-2.8.41-7.77.43a26.84,26.84,0,0,1-4.11-.38A8.76,8.76,0,0,1,206,192a19.77,19.77,0,0,1-4.72-5.61,30.79,30.79,0,0,1-3.54-7.1c0-.15-.26-.06-.22.08.36,1.43.61,2.87,1.09,4.27a26.77,26.77,0,0,0,1.73,3.82c1.22,2.3,2.64,4.76,4.88,6.21s5.49,1.61,8.21,1.61c1.57,0,7.69-.61,8.46-1.54C222,193.55,222,193.22,221.74,193.19Z" style="fill:#263238"></path><path d="M243.35,398.5c-7.86-16.84-33.33-75.09-41.5-90.61-1.95-3.71-4.24-7.44-5.4-11.49-1.27-4.41-.18-8.55,1.42-12.7a215.93,215.93,0,0,1,10.26-22.23C211.92,254.22,216,247.1,220,240s8.13-14.19,11.25-21.7c3-7.17,4.38-14.7,2.83-22.4s-5.39-14.63-9.46-21.18c-1.07-1.73-2.17-3.45-3.25-5.18-.08-.13-.28,0-.2.15,4.51,6.84,8.87,14.07,11.3,22a36.77,36.77,0,0,1,1.75,12,38.5,38.5,0,0,1-2.58,12.07c-2.8,7.52-6.94,14.57-10.83,21.57-4,7.16-8,14.26-11.89,21.49a235.72,235.72,0,0,0-10.62,22.3c-1.37,3.4-2.89,7-3,10.68-.14,4.07,1.59,7.84,3.41,11.38,7.93,15.43,43.24,93.73,44.35,95.62C243.14,399,243.46,398.75,243.35,398.5Z" style="fill:#263238"></path><path d="M165.4,98.82c-25.78,25-55.23,61-48.95,71.65,7,11.92,38.76-10.43,39.83-12.2,1.19-2,14.89-26.83,22.47-50.7C187.06,81.39,171.77,92.64,165.4,98.82Z" style="fill:#774442"></path><path d="M165.4,98.82c-25.78,25-55.23,61-48.95,71.65,7,11.92,38.76-10.43,39.83-12.2,1.19-2,14.89-26.83,22.47-50.7C187.06,81.39,171.77,92.64,165.4,98.82Z" style="fill:#065F46"></path><path d="M178.75,107.57c-7.59,23.87-21.28,48.72-22.47,50.7-.87,1.47-22.35,16.71-33.93,15.63l56.9-82.61C181.59,92.32,182.18,96.74,178.75,107.57Z" style="fill:#000102;opacity:0.1"></path><path d="M153.8,194.38c2.29,1.46,87.72-8.12,88-8.75S221,113.91,200.41,92c-6.2-6.59-24.38-6.06-28.66,4.44C164.37,114.57,152.36,193.46,153.8,194.38Z" style="fill:#065F46"></path><path d="M207.65,98.59c20.27,16.58,34.71,34.09,40.12,36.25,12,4.77,32.18,11.27,38.3,12.8,3.88,1-3.23,36-9.51,34.52C271.28,181,237.21,168.29,229,159.9c-7.26-7.41-20.94-29-32.51-51.72C187,89.43,196.23,89.25,207.65,98.59Z" style="fill:#774442"></path><path d="M275.13,181.37c3.82,2.25,22.24,11,27.91,12.29s22.25,3.81,23.68-.43-3.37-5.37-3.37-5.37,7.17,0,8.22-4.44-6.47-5.91-6.47-5.91,7.36-.58,8.09-5-7.08-4.71-7.08-4.71,6.76-.22,5.81-4.15c-1.13-4.73-13.54-2.92-19.7-4.82-1.39-.42-27.69-10.72-27.69-10.72Z" style="fill:#774442"></path><path d="M326.78,167.78c-9.13,1.31-13.35.3-21.63-3.41-.17-.07-.31.16-.15.25,7.79,4.37,12.9,6.39,21.87,3.6C327.31,168.08,327.22,167.72,326.78,167.78Z" style="fill:#263238"></path><path d="M325.82,177.39c-9.6.53-14.18-.52-23.15-3.77-.12,0-.22.17-.09.22,8.53,3.92,13.67,5.83,23.2,4C326.21,177.8,326.26,177.37,325.82,177.39Z" style="fill:#263238"></path><path d="M322.9,187.68c-9.33-.16-14.41-1.09-22.71-5.36a.17.17,0,0,0-.17.29c8,5.18,14.37,6.39,22.85,5.35C323.45,187.89,323.49,187.69,322.9,187.68Z" style="fill:#263238"></path><path d="M278.55,146.83s11.17-3,16.36-3.2,24.86,6.06,23.74,10.38c-1.44,5.59-13.5,4.2-19.32,2.74,0,0-3.33,12.92-12.2,13.79S278.55,146.83,278.55,146.83Z" style="fill:#774442"></path><path d="M317.76,155.42c-5,4.14-12.51,1.74-18.26.75a.53.53,0,0,0-.64.6c-1.76,5.32-5.78,12.32-11.45,14a.13.13,0,0,0,.06.26c6.32-1,10.83-7.54,12.38-13.49,5.89,1.11,13.53,3.18,17.95-2.08C317.82,155.43,317.79,155.39,317.76,155.42Z" style="fill:#263238"></path><path d="M272,186.1l12.52-40s-34-11.6-37.11-13.56c-2.11-1.33-34-31.83-44.34-39.82s-17.5-1.86-10,13.74,23.43,42.08,29.57,48.9C234,168,272,186.1,272,186.1Z" style="fill:#065F46"></path><path d="M264.43,178.92c1.07-4.37,2.38-8.69,3.7-13s2.64-8.65,4.07-12.95c.81-2.42,1.61-4.86,2.5-7.26,0-.06.14,0,.12,0-1.07,4.37-2.36,8.7-3.65,13s-2.64,8.65-4,13c-.78,2.44-1.6,4.86-2.5,7.26C264.61,179.08,264.39,179.05,264.43,178.92Z" style="fill:#263238"></path><path d="M242.57,170.33c-7.1-4.43-14.24-9-20.37-14.71a74.82,74.82,0,0,1-5.71-8.09q-9.33-14.78-17.71-30.1C205,127.24,211,137.21,217.32,147a79.82,79.82,0,0,0,5.53,8c6.05,5.74,13,10.46,19.72,15.35Z" style="fill:#263238"></path><path d="M199,121.19a32.67,32.67,0,0,1,4.81,4.74,9.89,9.89,0,0,1-4.81-4.74Z" style="fill:#263238"></path><path d="M180.19,104.58c4.81.55,12-7.56,14.45-13.72.17-.43-.94-4.54-2.06-9.59-.66-3.08-1.32-6.51-1.71-9.69l-19.35,7.23a51.23,51.23,0,0,1,3.38,12,6.51,6.51,0,0,1,0,1.32v.22C174.81,94.86,175.55,104.05,180.19,104.58Z" style="fill:#774442"></path><path d="M193.73,86.22c-8.23,4-15.95.82-20.19-1.73a58.94,58.94,0,0,0-2-5.67l19.36-7.24c.38,3.18,1,6.62,1.71,9.69C193,83.08,193.38,84.77,193.73,86.22Z" style="fill:#263238"></path><path d="M168.39,45.38c-3.82,6.39-5.12,27.26-1.31,32.93,5.53,8.22,17,11.73,24.65,4.52,7.38-7,8.58-34.22,4.09-39.62C189.21,35.25,174,36,168.39,45.38Z" style="fill:#774442"></path><path d="M162,63.56c5.47,1.55,9.75-4.46,9.56-10.06,0,0,14.36,5,17.54-6.67a11.91,11.91,0,0,0,8.49,7.33l.74,4.71c1.6-.12,4.11-4.09,1.11-8.24,0,0,1-6-2.63-10.41a8.24,8.24,0,0,0-8.43-3A12.47,12.47,0,0,0,180,33.13c-5.58-.44-8.86,4.06-8.86,4.06s-7.6-.13-9.93,4.8a11,11,0,0,0-.38,9s-2.26,1.66-2.25,6.29C158.55,60.23,160.39,63.1,162,63.56Z" style="fill:#263238"></path><path d="M189,45.71a13.42,13.42,0,0,1-.57,2.9,11.58,11.58,0,0,1-1.12,2.69A7.61,7.61,0,0,1,183,54.84c-1.8.69-3.8.44-5.72.23-.95-.23-1.93-.39-2.87-.67s-1.88-.62-2.84-.9c.9.42,1.82.81,2.73,1.22s1.91.58,2.87.88a12.28,12.28,0,0,0,6.05-.09,8,8,0,0,0,4.56-3.95A12.07,12.07,0,0,0,189,45.71Z" style="fill:#263238"></path><path d="M171.11,37.19a13.81,13.81,0,0,0-5.69,0,8.34,8.34,0,0,0-4.92,3,8.91,8.91,0,0,0-1.28,2.63,8.5,8.5,0,0,0-.46,2.87,7.86,7.86,0,0,0,2,5.26,8.58,8.58,0,0,1-1.5-5.25,9.62,9.62,0,0,1,1.75-5.1,7.44,7.44,0,0,1,2-1.81,11.09,11.09,0,0,1,2.53-1.06A17.45,17.45,0,0,1,171.11,37.19Z" style="fill:#263238"></path><path d="M188.42,37.19a14.2,14.2,0,0,1,4.51.06,8.09,8.09,0,0,1,6.43,5.4,15.33,15.33,0,0,1,.92,4.43,11.4,11.4,0,0,0-.41-4.6A7.77,7.77,0,0,0,193,36.72,10.77,10.77,0,0,0,188.42,37.19Z" style="fill:#263238"></path><path d="M195.21,54.15a15.91,15.91,0,0,1-4-3.34,9.38,9.38,0,0,1-1.35-2.17,11.36,11.36,0,0,1-.77-2.5,6.32,6.32,0,0,0,.27,2.69,7,7,0,0,0,1.31,2.42,8.83,8.83,0,0,0,2.05,1.81A8.09,8.09,0,0,0,195.21,54.15Z" style="fill:#263238"></path><path d="M183.54,64.29c0-.06-.11.06-.11.12,0,1.4-.22,3-1.5,3.43a0,0,0,0,0,0,.08C183.49,67.74,183.77,65.61,183.54,64.29Z" style="fill:#263238"></path><path d="M182.33,62.79c-2.25-.23-2.54,4.28-.46,4.49S184.21,63,182.33,62.79Z" style="fill:#263238"></path><path d="M191.74,64.81s.1.07.1.13c-.14,1.39-.06,3,1.17,3.56a0,0,0,0,1,0,.07C191.47,68.26,191.39,66.11,191.74,64.81Z" style="fill:#263238"></path><path d="M193.08,63.43c2.26,0,2.13,4.49,0,4.52S191.19,63.45,193.08,63.43Z" style="fill:#263238"></path><path d="M181.12,60.33a15.83,15.83,0,0,0,1.79-.5,3,3,0,0,0,1.72-.86.94.94,0,0,0-.08-1.16,2.35,2.35,0,0,0-2.36-.4,3.49,3.49,0,0,0-2.1,1.37A1,1,0,0,0,181.12,60.33Z" style="fill:#263238"></path><path d="M195,61.83a15.81,15.81,0,0,1-1.78-.53,2.94,2.94,0,0,1-1.7-.89,1,1,0,0,1,.1-1.16,2.37,2.37,0,0,1,2.37-.36A3.47,3.47,0,0,1,196,60.3,1,1,0,0,1,195,61.83Z" style="fill:#263238"></path><path d="M181.25,76.14c.24.4.44.92.92,1.09a3.68,3.68,0,0,0,1.55,0s.08,0,0,.08a1.87,1.87,0,0,1-1.91.28,1.49,1.49,0,0,1-.75-1.48C181.1,76.08,181.21,76.08,181.25,76.14Z" style="fill:#263238"></path><path d="M183.27,72.24a4.76,4.76,0,0,0,3,2.32,5.76,5.76,0,0,0,1.71.19c.11,0,.52,0,.64,0a.35.35,0,0,0,.3-.3h0c0-.05.1-3,.1-3,.38.23,2.32,1.26,2.33.7,0-4.67.06-9.86-.9-14.51a.13.13,0,0,0-.26,0c-.2,4.48.38,9,.25,13.48a8.2,8.2,0,0,0-2.2-.83c-.08,0,0,3.67,0,3.7-1.82.11-3.15-.52-4.82-1.85C183.31,72,183.19,72.12,183.27,72.24Z" style="fill:#263238"></path><path d="M169.13,65.92s-3.06-7.51-6.37-6.56-2,11.12,1.13,13.19a3.6,3.6,0,0,0,5.14-.82Z" style="fill:#774442"></path><path d="M163.2,62.26a0,0,0,0,0,0,.09c2.2,1.53,3,4.07,3.33,6.6a2,2,0,0,0-2.78-1.19c-.08,0,0,.15,0,.15A2.21,2.21,0,0,1,166,69.2a11.11,11.11,0,0,1,.71,2.18c.06.25.48.22.45,0a.13.13,0,0,0,0-.06C167.87,68.19,166.44,63.33,163.2,62.26Z" style="fill:#263238"></path><path d="M174.36,98.62a0,0,0,0,1,.07,0c.28,3.94,1.2,13,7.24,11.66,2.44-.56,4.48-2.4,6.16-4.16a34.75,34.75,0,0,0,4.48-6,50,50,0,0,0,3.93-7.41c0-.11.21,0,.16.08-1.13,2.58-2,5.23-3.38,7.7a30.57,30.57,0,0,1-4.82,6.59c-1.8,1.82-4,3.68-6.59,4.14a5,5,0,0,1-5.52-3A22.08,22.08,0,0,1,174.36,98.62Z" style="fill:#263238"></path><path d="M174.67,90.35l5.85,12.09L194,86.68l4.44,4.45s-12.55,24.41-12.71,23.36l-5.5-9.71-6.45,7.47-.65-17.59Z" style="fill:#ebebeb"></path><path d="M173,103.57c0-2.9-.11-5.83,0-8.74,0-.1.16-.16.19,0,.78,2.76.76,13.88,1,16.53l0,0c.27-.32,6-6.59,6.07-6.5,1.15,1.52,5.19,8.59,5.47,9.24,2-3.88,10.48-19.21,12.88-22.91a.11.11,0,0,1,.19.09c-1.71,4.06-12.65,24.28-12.83,24.24a114.49,114.49,0,0,1-5.76-10.27c-.95,1.34-6.69,8.37-6.74,7.94A92.05,92.05,0,0,1,173,103.57Z" style="fill:#263238"></path><path d="M118.33,172.38c8.15,5,30,6.14,66.83-2.18,5.1-1.15-7-36.46-12.51-35.51-6.93,1.19-33.57,7.34-35.47,8C121.23,148.59,112.81,169,118.33,172.38Z" style="fill:#774442"></path><path d="M163,139.18s2.12-.78,12.64-6.72c7.28-4.1,27.63-9.45,45.83,5.39,7,5.68,6,13.06-2.26,8.44-5.84-3.26-9.61-6-11.82-6.54,0,0,3.9,9.47.73,14.48a109.57,109.57,0,0,1-9.2,12.52,23.08,23.08,0,0,1-2.5-1.52,12.45,12.45,0,0,1-12.45,4.65Z" style="fill:#774442"></path><path d="M183.18,129.65c4.29.89,13.35,2.92,20.18,7.16,7.59,4.71,20.94,15.83,17.4,21.39-2.59,4.08-8.06.29-8.06.29s4.55,5.76,1.41,8.93c-2.87,2.89-6.93-.3-6.93-.3s2.16,4-1.14,6.23c-4,2.71-7.84-6-14.23-6.78C190.37,166.41,183.18,129.65,183.18,129.65Z" style="fill:#774442"></path><path d="M197.05,144c3.89,1.5,11.87,7.16,15.66,14.3.09.17,0,.32-.1.19A87.51,87.51,0,0,0,197,144.07S197,144,197.05,144Z" style="fill:#263238"></path><path d="M192.52,151.8c3.23,1.63,11.19,7.84,14.78,15.21.08.17,0,.31-.11.18a94,94,0,0,0-14.72-15.32S192.48,151.78,192.52,151.8Z" style="fill:#263238"></path><path d="M164.68,135.51l10.93,39.91s-54.06,4.93-58.74-3.59,9.71-26.21,18.79-29.18S164.68,135.51,164.68,135.51Z" style="fill:#065F46"></path><path d="M130.75,147.4c1.38-1,4.75-4.61,10.63-6.57,5.12-1.72,19.77-5,23.37-5.21.09,0,.11.08,0,.1-3.21.7-17.29,4.09-22.78,5.86a42.46,42.46,0,0,0-11.16,5.88C130.76,147.51,130.69,147.44,130.75,147.4Z" style="fill:#263238"></path><path d="M165,172a77.2,77.2,0,0,0-1.71-7.67c-.64-2.64-1.37-5.26-2.08-7.88s-3.9-13-4.69-15.58a.1.1,0,0,0-.19.05c.64,2.64,3.16,13.11,3.87,15.67s1.4,5.14,2.18,7.69a77.6,77.6,0,0,0,2.51,7.74C164.89,172.09,165,172.09,165,172Z" style="fill:#263238"></path><path d="M174.8,172.37l.93,3,.05.13-.15,0a218.18,218.18,0,0,1-38.32,1.53,82.15,82.15,0,0,1-12.7-1.62c16.94,1.88,34,.67,51-.15l-.11.15-.69-3.08Z" style="fill:#263238"></path></g><g id="freepik--character-3--inject-36"><polygon points="350.78 346.74 401.33 346.74 427.26 202.5 380.97 181.23 350.78 346.74" style="fill:#065F46"></polygon><g style="opacity:0.4"><polygon points="350.78 346.74 401.33 346.74 427.26 202.5 380.97 181.23 350.78 346.74" style="fill:#fff"></polygon></g><polygon points="214.32 346.74 350.78 346.74 380.97 181.23 244.52 181.23 214.32 346.74" style="fill:#065F46"></polygon><polygon points="214.32 346.74 350.78 346.74 380.97 181.23 244.52 181.23 214.32 346.74" style="fill:#fff;opacity:0.7000000000000001"></polygon><polygon points="178.47 428.32 199.64 428.32 231.18 254.32 178.47 254.32 178.47 428.32" style="fill:#065F46"></polygon><g style="opacity:0.4"><polygon points="178.47 428.32 199.64 428.32 231.18 254.32 178.47 254.32 178.47 428.32" style="fill:#fff"></polygon></g><rect x="135.9" y="254.32" width="42.57" height="174.01" transform="translate(314.37 682.64) rotate(180)" style="fill:#065F46"></rect><rect x="135.9" y="254.32" width="42.57" height="174.01" transform="translate(314.37 682.64) rotate(180)" style="fill:#fff;opacity:0.7000000000000001"></rect><rect x="378.07" y="254.32" width="77.48" height="174.01" transform="translate(833.61 682.64) rotate(180)" style="fill:#065F46"></rect><g style="opacity:0.4"><rect x="378.07" y="254.32" width="77.48" height="174.01" transform="translate(833.61 682.64) rotate(180)" style="fill:#fff"></rect></g><rect x="335.5" y="254.32" width="42.57" height="174.01" transform="translate(713.56 682.64) rotate(180)" style="fill:#065F46"></rect><rect x="335.5" y="254.32" width="42.57" height="174.01" transform="translate(713.56 682.64) rotate(180)" style="fill:#fff;opacity:0.7000000000000001"></rect><polygon points="426.1 428.32 427.15 441.2 429.6 470.96 440.82 470.96 443.26 441.2 444.31 428.32 426.1 428.32" style="fill:#c7c7c7"></polygon><polygon points="444.31 428.32 426.1 428.32 427.15 441.2 443.26 441.2 444.31 428.32" style="fill:#a6a6a6"></polygon><polygon points="347.68 428.32 348.73 441.2 351.17 470.96 362.39 470.96 364.84 441.2 365.89 428.32 347.68 428.32" style="fill:#c7c7c7"></polygon><polygon points="365.89 428.32 347.68 428.32 348.73 441.2 364.84 441.2 365.89 428.32" style="fill:#a6a6a6"></polygon><polygon points="225.84 428.32 226.89 441.2 229.33 470.96 240.55 470.96 243 441.2 244.05 428.32 225.84 428.32" style="fill:#c7c7c7"></polygon><polygon points="244.05 428.32 225.84 428.32 226.89 441.2 243 441.2 244.05 428.32" style="fill:#a6a6a6"></polygon><polygon points="147.4 428.32 148.45 441.2 150.89 470.96 162.11 470.96 164.56 441.2 165.6 428.32 147.4 428.32" style="fill:#c7c7c7"></polygon><polygon points="147.4 428.32 148.45 441.2 164.56 441.2 165.6 428.32 147.4 428.32" style="fill:#a6a6a6"></polygon><rect x="178.47" y="346.74" width="157.03" height="81.58" transform="translate(513.97 775.07) rotate(180)" style="fill:#065F46"></rect><rect x="178.47" y="346.74" width="157.03" height="81.58" transform="translate(513.97 775.07) rotate(180)" style="fill:#fff;opacity:0.7000000000000001"></rect><rect x="178.47" y="311.48" width="157.03" height="35.6" transform="translate(513.97 658.55) rotate(180)" style="fill:#065F46"></rect><rect x="178.47" y="311.48" width="157.03" height="35.6" transform="translate(513.97 658.55) rotate(180)" style="fill:#fff;opacity:0.7000000000000001"></rect><path d="M417.92,254.32,351.57,254l-16.07-.2H335v.5l-.18,18.6-.07,33.64c-.05,12.4-.09,24.8,0,37.21s.05,24.8.21,37.2.27,24.81.54,37.21q.39-18.6.54-37.21c.15-12.4.17-24.8.21-37.2s0-24.81,0-37.21l-.06-33.64-.19-18.6-.48.48,16.07-.2Z" style="fill:#263238"></path><path d="M178.47,254.32c-.33,12.45-.49,39.93-.61,52.38L177.67,344l.18,37.35.23,18.67.39,18.68.39-18.68.23-18.67.18-37.35-.19-37.34C179,294.25,178.8,266.77,178.47,254.32Z" style="fill:#263238"></path><path d="M178.47,346.74c13.77.33,27.54.49,41.32.62l41.31.19,33.08-.19,20.66-.22,20.66-.4-20.66-.39-20.66-.22-33.08-.19-41.31.19C206,346.26,192.24,346.41,178.47,346.74Z" style="fill:#263238"></path><path d="M178.47,311.48c13.77.33,27.54.48,41.32.61l41.31.19,33.08-.19,20.66-.22,20.66-.39-20.66-.4-20.66-.22-33.08-.19-41.31.19C206,311,192.24,311.15,178.47,311.48Z" style="fill:#263238"></path><g style="opacity:0.2"><path d="M362.92,251.89a.83.83,0,0,1,0,1.66A.83.83,0,0,1,362.92,251.89Z"></path><path d="M361.51,353.11a.83.83,0,0,1,0,1.65A.83.83,0,0,1,361.51,353.11Z"></path><path d="M410,201.39c0-.08.08-.16.13-.24a.37.37,0,0,1,.64,0c.05.08.09.16.13.24C411.34,202.37,409.5,202.37,410,201.39Z"></path><path d="M396.65,355.19c0-.08.08-.16.13-.24a.37.37,0,0,1,.64,0c.05.08.09.16.13.24C398,356.17,396.18,356.17,396.65,355.19Z"></path><path d="M355.81,256.94a.63.63,0,0,1,0,1.26A.63.63,0,0,1,355.81,256.94Z"></path><path d="M246.31,378.8a.83.83,0,0,1,0,1.65A.83.83,0,0,1,246.31,378.8Z"></path><path d="M318.26,399.84a.63.63,0,0,1,0,1.26A.63.63,0,0,1,318.26,399.84Z"></path><path d="M408.94,321.09a.64.64,0,0,1,0,1.27A.64.64,0,0,1,408.94,321.09Z"></path><path d="M326,221.68a.87.87,0,0,1,1.23,0,1.23,1.23,0,0,1,.31,1.2,1,1,0,0,1-1.84,0A1.23,1.23,0,0,1,326,221.68Z"></path><path d="M354.58,348.43a.87.87,0,0,1,1.23,0,1.21,1.21,0,0,1,.3,1.19,1,1,0,0,1-1.83,0A1.21,1.21,0,0,1,354.58,348.43Z"></path><path d="M434.59,401.68a.87.87,0,0,1,1.23,0,1.19,1.19,0,0,1,.3,1.19,1,1,0,0,1-1.83,0A1.21,1.21,0,0,1,434.59,401.68Z"></path><path d="M209.86,207.44a.83.83,0,0,1,0-1.65A.83.83,0,0,1,209.86,207.44Z"></path><path d="M199,357a.83.83,0,0,1,0-1.65A.83.83,0,0,1,199,357Z"></path><path d="M240.1,246.53a.83.83,0,0,1,0-1.66A.83.83,0,0,1,240.1,246.53Z"></path><path d="M163.06,349.15a1.92,1.92,0,0,1-.12.25.38.38,0,0,1-.65,0c0-.08-.09-.16-.13-.25C161.7,348.17,163.53,348.17,163.06,349.15Z"></path><path d="M153.1,278.61a2,2,0,0,1-.13.25.37.37,0,0,1-.64,0,2,2,0,0,1-.13-.25C151.73,277.63,153.57,277.63,153.1,278.61Z"></path><path d="M155.71,393.4c0,.08-.08.16-.13.24a.37.37,0,0,1-.64,0c-.05-.08-.09-.16-.13-.24C154.34,392.42,156.18,392.42,155.71,393.4Z"></path><path d="M265.33,299.31a.89.89,0,0,1-1.23,0,1.23,1.23,0,0,1-.3-1.2,1,1,0,0,1,1.84,0A1.24,1.24,0,0,1,265.33,299.31Z"></path><path d="M145.17,282.34a.89.89,0,0,1-1.23,0,1.23,1.23,0,0,1-.3-1.2,1,1,0,0,1,1.84,0A1.26,1.26,0,0,1,145.17,282.34Z"></path></g><path d="M285.74,190.21c-8.59,24.64-15.36,49.74-28.33,55.27-12.34,5.26-40.21-19-49.44-26.93-3.12-2.69,16.55-26.88,20.37-24.69C235.55,198,250,210.71,252,210s12.16-16.7,25.71-31.84C285.88,169,291.7,173.13,285.74,190.21Z" style="fill:#ad6359"></path><path d="M210,219.41c-3.4-1.31-18.43-8.69-22.15-11.67S174,195.37,176,192.28s5.17-.57,5.17-.57-3.63-4.64-1.34-7.56,7.11,1.14,7.11,1.14-3.39-5-.89-7.78,6.65,2.15,6.65,2.15-3.31-4.46-.3-5.86c3.63-1.68,8.8,7.23,13.16,10.22,1,.68,21.05,12.34,21.05,12.34Z" style="fill:#ad6359"></path><path d="M192.35,179.25c3.82,6.54,6.62,8.74,13.24,12.18.13.06.06.27-.08.21-6.79-2.77-10.71-5-13.49-12.22C191.88,179.06,192.16,178.94,192.35,179.25Z" style="fill:#263238"></path><path d="M186.65,184.77c4.57,6.45,7.59,8.86,14.25,13a.1.1,0,0,1-.09.17c-6.88-3.48-10.73-5.82-14.45-12.86C186.2,184.73,186.44,184.47,186.65,184.77Z" style="fill:#263238"></path><path d="M181.53,191.9c4.86,5.93,8.06,8.72,15,11.88a.14.14,0,1,1-.1.26c-7.43-2.53-11.45-6-15.11-12C181.11,191.66,181.22,191.53,181.53,191.9Z" style="fill:#263238"></path><path d="M231.81,196.35s-4.05-8.59-6.65-12-17-12.4-19.09-9.41c-2.75,3.86,4.51,10.7,8.51,13.59,0,0-6.36,8.92-2.21,15S231.81,196.35,231.81,196.35Z" style="fill:#ad6359"></path><path d="M205.66,176.28c0,5.32,5.53,8.77,9.19,11.86a.44.44,0,0,1,0,.72c-2.42,3.92-4.68,10.15-2.74,14.6a.11.11,0,0,1-.2.11c-2.72-4.5-1-10.8,1.92-14.92-3.81-3.11-9.16-6.81-8.19-12.38C205.61,176.24,205.66,176.24,205.66,176.28Z" style="fill:#263238"></path><path d="M235.67,195.14l-21.21,30.47s31.06,25.86,43.09,20.88,25.95-40.5,30.33-63.1c3-15.63-4.89-12-12.48-3.44s-22.95,28.22-24,28.09S235.67,195.14,235.67,195.14Z" style="fill:#c7c7c7"></path><path d="M223.3,228.83c3.1-4.23,15.15-22,17.5-26,.16-.27,0-.44-.19-.18C231,215.09,226,224.4,223.14,228.7,223.07,228.81,223.22,228.94,223.3,228.83Z" style="fill:#263238"></path><path d="M288.53,177.74c0,.27,0,.55,0,.85s0,.61-.07.94a38.22,38.22,0,0,1-.56,3.86c-.1.54-.22,1.09-.34,1.65s-.24,1.15-.37,1.74-.26,1.17-.4,1.76c-4.06,17.16-12.6,39.51-21.26,50.82l-.09.16h0c-2.64,3.44-5.3,5.9-7.87,7-2.08.86-4.74.8-7.71.11,8-17.9,24.35-55,33.6-73.1a7.81,7.81,0,0,1,1.23-.78h0a2.83,2.83,0,0,1,2.41.31l.22.19a2.55,2.55,0,0,1,.39.46,3.64,3.64,0,0,1,.45.95A9.24,9.24,0,0,1,288.53,177.74Z" style="fill:#000102;opacity:0.1"></path><path d="M106.85,432c2.83,1.65,89.76,19.82,93.51,18.42,1.43-.52,4.81-13,8.47-28.26.8-3.29,1.59-6.69,2.38-10.14,5.16-22.45,10.1-46.38,10.1-46.38l-58.12-12.33-8.49,46.72-1.88,10.25s-36.39,7.93-40.34,9.91S104,430.39,106.85,432Z" style="fill:#ad6359"></path><path d="M207.42,428c-3.09,12.49-5.82,22-7.06,22.45-3.75,1.41-90.68-16.78-93.51-18.43s1.69-9.81,5.62-11.8c2.44-1.21,17.23-4.7,28.2-7.2-9.58,2.29-27.46,8.79,9.52,11.47C180.76,426.72,200.93,427.73,207.42,428Z" style="fill:#263238"></path><path d="M185.31,476.5c3.15.88,91.84-3.71,95.12-6,1.24-.87-2.17-36.48-3.1-39.9C274.18,419,259.2,384,259.2,384l-59.34,2.89,24.37,56.86s-33.18,16.94-36.49,19.86S182.16,475.62,185.31,476.5Z" style="fill:#ad6359"></path><path d="M280.42,470.48c-3.27,2.32-92,6.9-95.11,6s-.88-9.93,2.42-12.85c1.56-1.36,9.57-5.75,17.7-10.06-10.2,5.74-26.34,18.54,74.07-4.28C280.41,459.47,281.09,470,280.42,470.48Z" style="fill:#263238"></path><path d="M322.9,301.09c-17.67,19.69-77.07,4.14-80.62,12C239.15,320,279.68,431,279.68,431l-64.85,7s-56-122.57-36-158c10.81-19.12,58.44-11.5,87.19-15,8.67-1,12.74-18.94,12.74-18.94h51.37S343.11,278.58,322.9,301.09Z" style="fill:#263238"></path><path d="M196.88,269l54.46,41.68c18.09-.39,57.68,5.88,71.56-9.59,20.21-22.51,7.25-55,7.25-55H278.78S274.71,263.91,266,265C245.87,267.41,216.41,264.4,196.88,269Z" style="fill:#37474f"></path><path d="M212.35,423.48c1.79-.56,18.61-2.43,22.31-2.83,7.43-.81,30.8-3,35-3a.1.1,0,0,1,0,.2c-3.68.77-18.6,2.51-22.3,2.89-7.44.77-33,3.24-35,3A.16.16,0,0,1,212.35,423.48Z" style="fill:#37474f"></path><path d="M234.41,306.56c4.17-2.07,35.79-1.05,58.47-3.17,7.39-.69,14.8-2.27,20.44-7.11a33.82,33.82,0,0,0,10.1-16.63c2.18-7.75,1.95-15.83,1.58-23.77-.09-1.95-.22-3.91-.35-5.86,0-.11.2-.13.21,0,1.72,14.22,3,30.1-6.2,42.43a29.73,29.73,0,0,1-16.54,10.84c-13.68,3.6-65.11,2.71-66.93,4.1C233,309,266.28,410.26,266.94,412.18c.13.37-.51.61-.66.25C263,404.66,230.79,308.37,234.41,306.56Z" style="fill:#37474f"></path><path d="M176.53,283.39c3.05-7.76,10-12.6,20.29-14.45.17,0,.16.23,0,.28-8.95,2.61-15.35,6.21-18.87,13.77-1.65,3.53-2.5,8.49-2.92,15.13-2.13,33.15,26.79,108.39,27.38,109.7a.1.1,0,0,1-.18.09C198.15,401.05,163.9,315.43,176.53,283.39Z" style="fill:#37474f"></path><path d="M153.08,397.1l49.11,10.44S163.44,291.91,181.64,277c5-4.14,16-5.58,29.11.06,19.51,8.43,42.1,25.61,63.39,31.9,19.94,5.88,43.61.47,51.76-8.5C343,281.61,330.14,246,330.14,246l-65.62-2.65s1.05.86-2.32,3.85c0,0-46.51-9.42-64.55,1.6C165.11,268.69,153.08,397.1,153.08,397.1Z" style="fill:#263238"></path><path d="M299.63,250.14a.13.13,0,0,1,.25,0,39.67,39.67,0,0,0,.61,7.92,13.78,13.78,0,0,0,3.55,6.58c3.88,3.92,9.43,5.25,14.51,6.85.26.08.21.56-.09.51-5.63-.87-11.55-2.29-15.67-6.52a13.71,13.71,0,0,1-3.64-7.09A16.88,16.88,0,0,1,299.63,250.14Z" style="fill:#37474f"></path><path d="M182.86,274.78c7.55-4.74,19.35-1.14,25,1,.12,0,.07.23-.05.19-5.2-1.87-18.14-4.7-25.05.2-16,11.32,5.4,88.73,19.43,131.34.22.67-.31.49-.61-.15-2.31-5.05-20.38-58.89-25.1-94.51C175.75,307.4,172,281.61,182.86,274.78Z" style="fill:#37474f"></path><path d="M158.68,384c1.48,0,14.21,2.77,17,3.4,5.61,1.26,18.61,4.63,21.64,5.78.08,0,0,.2-.06.2-2.91-.28-9.69-1.77-12.48-2.42-5.6-1.3-24.8-5.91-26.2-6.66C158.46,384.28,158.53,384,158.68,384Z" style="fill:#37474f"></path><path d="M185.26,272.77c5.08-2.78,11.13-3.23,16.77-2.54a58.87,58.87,0,0,1,17.13,5.36c11.49,5.26,22.44,11.67,33.94,16.9s23.65,9.26,36.25,9.65c10.77.33,24.41-1.57,31.34-11.26,10.67-14.93,4.46-40.68,4.33-42.34,0-.13.17-.13.2,0,8.28,31.65-2.38,43.93-9.57,49.1-5.71,4.11-13.91,5.14-19.33,5.6-12.54,1.06-25.11-2-36.73-6.64-11.91-4.74-23.08-11.13-34.49-17-10.94-5.6-23.14-11.37-35.64-8.16a30.77,30.77,0,0,0-4.15,1.42C185.24,272.92,185.2,272.8,185.26,272.77Z" style="fill:#37474f"></path><path d="M258.92,247.52,335,254S327.15,218.36,316,190.2c-11.9-30.15-28-22.13-33.73-17.33-6.77,5.69-20.18,27.09-21.18,31.25-1.65,6.87,4.08,14.71,4.08,14.71Z" style="fill:#c7c7c7"></path><path d="M288.51,218.94a63,63,0,0,0-9.42.31c-1.56.19-3.09.44-4.63.74-.76.14-1.53.26-2.3.38a9.89,9.89,0,0,1-2.43.13c-.08,0-.09.1,0,.11a16,16,0,0,0,2.3.26,16.67,16.67,0,0,0,2.23-.12c1.58-.18,3.15-.43,4.72-.62,3.18-.38,6.36-.77,9.55-.93C288.66,219.2,288.66,219,288.51,218.94Z" style="fill:#263238"></path><path d="M295.83,222.7a71.49,71.49,0,0,0-7.66-1.38c-1.29-.15-2.58-.23-3.88-.27-.62,0-1.24,0-1.86,0s-1.36.09-2.05.08c-.07,0-.08.1,0,.11.64,0,1.28.17,1.92.23l1.93.21c1.29.13,2.58.29,3.87.41,2.58.25,5.14.53,7.71.87A.11.11,0,0,0,295.83,222.7Z" style="fill:#263238"></path><path d="M307.84,175.69c23.16,22.22,52.42,65.4,47.4,75.28-5.58,11-37.47-19.06-37.4-20.93.05-1.42-11.75-27.29-20.71-48.29S302.12,170.19,307.84,175.69Z" style="fill:#ad6359"></path><path d="M317.63,230.08c-1-3.09-17.08-38.16-21.71-50.22s-.75-15.92,11.82-5.11,39.77,42.48,46.44,62.08c6.44,18.88-2.7,21-15.88,12.55C327.51,242.48,317.63,230.08,317.63,230.08Z" style="fill:#c7c7c7"></path><path d="M319.69,235c-1.37-3.61-2.79-7.2-4.22-10.79s-2.9-7.16-4.35-10.74l-4.47-10.69-2.28-5.33c-.78-1.77-1.54-3.54-2.33-5.31.67,1.81,1.38,3.61,2.08,5.41l2.13,5.39,4.35,10.74c1.49,3.56,3,7.14,4.47,10.69S318.11,231.48,319.69,235Z" style="fill:#263238"></path><path d="M305.31,200.5a20.18,20.18,0,0,0-1.59-2.61q-.44-.63-.9-1.23c-.3-.4-.63-.79-1-1.19a13.93,13.93,0,0,0,1.51,2.66A18.25,18.25,0,0,0,305.31,200.5Z" style="fill:#263238"></path><path d="M354.1,252.73c-8.32,3.9-20.28-1-54.75-12.76-4.77-1.62-3-39.42,2.19-37.95,6.53,1.87,31.46,10.5,33.2,11.36C349.45,220.65,359.74,250.09,354.1,252.73Z" style="fill:#ad6359"></path><path d="M312.46,207.54s-11.52-7.54-19.29-12.11c-4.34-2.55-12.16-6.26-16.2-6.68-6-.62-31.72.63-31.56,6.86.16,5.65,22.08,1.77,22.08,1.77s-22.47,2-21,8.71,25.62-.91,25.62-.91-23,2.53-20.46,9.26c1.95,5.09,24.25-.62,24.25-.62s-19.79,2.31-18,7.63c2,5.88,22.88,1.9,22.88,1.9,6.8,12.77,15.27,16.06,21.56,17.69C303.83,241.43,312.46,207.54,312.46,207.54Z" style="fill:#ad6359"></path><path d="M275.22,196.21c-2.65.13-5.33.25-8,.62s-5.25.83-7.83,1.44a45.59,45.59,0,0,0-9.81,3.33c5.75-2.22,15.13-3.69,17.76-4.06s5.23-.86,7.85-1.23C275.31,196.3,275.28,196.2,275.22,196.21Z" style="fill:#263238"></path><path d="M276.73,205.67c-3.38.31-6.74.51-10.1,1s-6.48,1.2-9.78,1.89c-.25.06-.14.18.12.13,3.33-.56,6.45-.82,9.78-1.34s6.65-1.17,10-1.57C276.79,205.74,276.78,205.66,276.73,205.67Z" style="fill:#263238"></path><path d="M279.48,213.56a75.18,75.18,0,0,0-15.32,2.67c-.25.06-.09.2.17.15,5.07-1,9.05-1.79,15.16-2.64C279.58,213.72,279.59,213.55,279.48,213.56Z" style="fill:#263238"></path><path d="M305.81,202.6l9.74,45.85s30.78,9.21,38.88,4.51c5.33-3.1-4.24-33.48-21.1-40.27Z" style="fill:#c7c7c7"></path><path d="M349.11,228.32c-1.47-3.27-6.1-11.6-15.79-15.67-.08,0-.16.09-.07.14,6.92,3.73,14.05,12.58,15.73,15.61C349,228.48,349.15,228.4,349.11,228.32Z" style="fill:#263238"></path><path d="M325.88,247.67c-.8-5.1-1.87-10.15-3-15.2s-2.16-10.11-3.37-15.13c-.69-2.84-1.36-5.68-2.14-8.5,0-.07-.15-.06-.14,0,.8,5.09,1.85,10.15,2.9,15.2s2.16,10.11,3.32,15.15c.65,2.85,1.35,5.68,2.13,8.5C325.66,247.85,325.9,247.82,325.88,247.67Z" style="fill:#263238"></path><path d="M306,202.18a46.54,46.54,0,0,1,5.75,1.77c1.9.67,3.79,1.37,5.67,2.08,3.73,1.42,11.82,4,18.12,7.67.07,0-.48.17-.55.12-2.91-1.89-26.94-10-28.78-10.91a3.7,3.7,0,0,1,0,.47.12.12,0,0,1-.22.05,8.22,8.22,0,0,1-.3-.83A.29.29,0,0,1,306,202.18Z" style="fill:#263238"></path><path d="M348.23,254.77a26,26,0,0,1-4.14-.37c-1.37-.2-2.73-.47-4.09-.72q-4.08-.83-8.14-1.74c-5.41-1.21-10.83-2.47-16.28-3.61l.09.09-1-3.19.78,3.26v.06l.07,0c2.64.92,5.31,1.72,8,2.47s5.4,1.4,8.12,2,5.47,1.11,8.24,1.48c1.39.19,2.78.33,4.18.41A19,19,0,0,0,348.23,254.77Z" style="fill:#263238"></path><path d="M278,177.46s.13,10.2,6.21,11c8,1.09,25.26-12.46,25.26-12.46s-8.51-8.46-16-8.46C284.82,167.57,278,177.46,278,177.46Z" style="fill:#ad6359"></path><path d="M297.29,132a3.91,3.91,0,0,0,2.71-1.48c.18-.28.3-.6.48-.88a2.45,2.45,0,0,1,1.2-.87,9.66,9.66,0,0,0,1.5-.77c1.45-1,2.7-2.51,2.39-4.32a5.59,5.59,0,0,0,4.68-5.21,4.86,4.86,0,0,0-.07-1A3.5,3.5,0,0,1,310,116a4.45,4.45,0,0,1,.84-1.27,5.4,5.4,0,0,0,.6-1,2.16,2.16,0,0,0-.77-2.77,3.56,3.56,0,0,0,.61-3.87,6.15,6.15,0,0,0-3.64-3.61,4.23,4.23,0,0,0-2.93-5.16,3.77,3.77,0,0,0-3.86-4.12A5.54,5.54,0,0,0,297,90.65a2.38,2.38,0,0,1-.95-.49,4.22,4.22,0,0,0-2.26-2.79,3.17,3.17,0,0,0-3.63.77,6.29,6.29,0,0,0-2.85-1,4.21,4.21,0,0,0-3.92,1.59A6,6,0,0,0,275,91.91a4.36,4.36,0,0,0-4.8.28c-1.71,1.18-2.48,3.24-2.94,5.19a3,3,0,0,0-3.73,1.27,3.33,3.33,0,0,0,0,3.21,4.7,4.7,0,0,0-1.85,3.1,2.81,2.81,0,0,0,1.39,2.7,4.16,4.16,0,0,0,1.63,6.82,5,5,0,0,0,1.59,9,4.42,4.42,0,0,0,0,4.86,6.55,6.55,0,0,0,5.22,2.69,4.44,4.44,0,0,0,2.49,4.24,5.72,5.72,0,0,0,4.57.05,4.2,4.2,0,0,1-4.58.91,4.68,4.68,0,0,1-2.54-5.19s0,0,0,0a4.56,4.56,0,0,0,2.43,5.56,4.78,4.78,0,0,0,5.61-1.58,5.18,5.18,0,0,0,9.25,1.66C292.41,139.15,297.93,136.87,297.29,132ZM295.6,89.71l-.09-.11a5.11,5.11,0,0,0-.82-.79,4.32,4.32,0,0,0-2.4-.83,4.56,4.56,0,0,0-1.22.13c-.22.06-.65.23-.65.23l-.13-.11a3.34,3.34,0,0,1,3.86-.2A4,4,0,0,1,295.6,89.71Zm-31.81,11.88,0,0a2.84,2.84,0,0,1-.06-2.81c.79-1.4,2.1-1.51,3.45-1.23a.36.36,0,0,1,0,.1,3.24,3.24,0,0,0-3.13,2A3.61,3.61,0,0,0,263.79,101.59Zm26.87,35.49a5.81,5.81,0,0,0,6.37-5h.05C297.16,136.26,294,137.67,290.66,137.08Z" style="fill:#263238"></path><path d="M296.19,170.46c.05,1.38-3.86,11.45-9.86,12.78-1.95.43-4.76-10.13-4.76-10.13l-.39-.74-5.39-10.25,10.6-11.68,1.55-1.59s1.29,2.9,2.86,6.53l.23.51.26.59c.24.54.49,1.09.72,1.65s.35.83.52,1.28.36.88.54,1.33A74,74,0,0,1,296.19,170.46Z" style="fill:#ad6359"></path><path d="M290.8,155.38a23.15,23.15,0,0,1-9.62,17l-5.39-10.25,10.6-11.68,1.55-1.59S289.23,151.75,290.8,155.38Z" style="fill:#263238"></path><path d="M255.55,148.87c2.7,20.15,15.07,20.81,19.41,20.22,3.94-.53,17.3-2.84,16.7-23.16s-10.82-25.43-19.9-24.69S252.86,128.72,255.55,148.87Z" style="fill:#ad6359"></path><path d="M257.36,146.17a13.94,13.94,0,0,0,1.31-.56,2.29,2.29,0,0,0,1.22-.84.74.74,0,0,0-.18-.87,1.83,1.83,0,0,0-1.84-.06,2.65,2.65,0,0,0-1.45,1.26A.78.78,0,0,0,257.36,146.17Z" style="fill:#263238"></path><path d="M271,143a11.21,11.21,0,0,1-1.42,0,2.26,2.26,0,0,1-1.45-.27.74.74,0,0,1-.19-.87,1.82,1.82,0,0,1,1.66-.79,2.65,2.65,0,0,1,1.84.57A.78.78,0,0,1,271,143Z" style="fill:#263238"></path><path d="M268.88,148.62c0-.05.12,0,.13.11.22,1.38.7,2.93,2,3.15,0,0,.05.08,0,.08C269.49,152,268.87,150,268.88,148.62Z" style="fill:#263238"></path><path d="M269.84,147c2.18-.59,3.2,3.82,1.18,4.37S268,147.45,269.84,147Z" style="fill:#263238"></path><path d="M270.76,147c.44.17.92.52,1.4.46s.84-.63,1.09-1.15c0-.06.08,0,.09,0a1.66,1.66,0,0,1-.79,2.12c-.8.3-1.57-.31-2-1.11C270.5,147.18,270.58,146.92,270.76,147Z" style="fill:#263238"></path><path d="M261.34,150.29s-.09.09-.08.15c.36,1.35.54,3-.59,3.71,0,0,0,.09,0,.07C262.16,153.66,261.89,151.52,261.34,150.29Z" style="fill:#263238"></path><path d="M259.79,149.15c-2.24.34-1.39,4.78.68,4.47S261.66,148.86,259.79,149.15Z" style="fill:#263238"></path><path d="M258.92,149.62c-.31.3-.58.79-1,.9s-.93-.29-1.33-.69c0,0-.07,0-.06.06.14.85.59,1.69,1.43,1.69s1.19-.82,1.23-1.71C259.21,149.71,259,149.49,258.92,149.62Z" style="fill:#263238"></path><path d="M272,159.67c-.22.41-.41.94-.89,1.13a3.63,3.63,0,0,1-1.54.1s-.08.06,0,.09a1.89,1.89,0,0,0,1.93.21,1.51,1.51,0,0,0,.69-1.51C272.16,159.6,272.05,159.61,272,159.67Z" style="fill:#263238"></path><path d="M265.12,156.14s.22,2.1.45,3.06c0,.09.27.07.6,0h0a4.7,4.7,0,0,0,4-2.79.11.11,0,0,0-.18-.1,7,7,0,0,1-3.87,2.21c-.13-.25-.25-3.61-.4-3.58a8.56,8.56,0,0,0-2.06,1c-.58-4.37-.45-8.79-1.09-13.13,0-.15-.26-.15-.27,0-.46,4.63.1,9.67.58,14.19C263,157.6,264.78,156.39,265.12,156.14Z" style="fill:#263238"></path><path d="M266.2,158.72a5.78,5.78,0,0,0,2.55,1.37,2.57,2.57,0,0,0,1.56-.17c1.06-.48.91-1.51.56-2.35a6.36,6.36,0,0,0-.72-1.25A7.39,7.39,0,0,1,266.2,158.72Z" style="fill:#263238"></path><path d="M268.75,160.09a2.57,2.57,0,0,0,1.56-.17c1.06-.48.91-1.51.56-2.35A2.66,2.66,0,0,0,268.75,160.09Z" style="fill:#ff99ba"></path><path d="M290.54,147.22c-3.19.89-5.28-5.75-5.28-5.75s-6.57,1.32-10.61-7.71a14.82,14.82,0,0,0,4.46,7.24s-11.85,1.07-18.65-7.68c0,0,2.93,4.56,5.1,6,0,0-5.13-.39-8.29-3.88,0,0-.92,6-2.18,7.87,0,0-3.53-20.4,15.7-22,0,0,11.93-1.55,18,6.94S290.54,147.22,290.54,147.22Z" style="fill:#263238"></path><path d="M287.05,147.26s2.95-7.16,6.1-6.24,1.91,10.62-1.12,12.58a3.44,3.44,0,0,1-4.9-.8Z" style="fill:#ad6359"></path><path d="M292.73,143.79s.07.06,0,.09c-2.1,1.45-2.84,3.87-3.2,6.28a1.9,1.9,0,0,1,2.66-1.13c.07,0,0,.14,0,.14a2.11,2.11,0,0,0-2.11,1.23,9.55,9.55,0,0,0-.68,2.08c-.06.23-.46.2-.44,0a.13.13,0,0,0,0-.06C288.25,149.43,289.63,144.79,292.73,143.79Z" style="fill:#263238"></path><path d="M293.66,152c.23.91,2-2.91,2-3.4s1.38-2.35,1.58-3.38a22.63,22.63,0,0,0,.21-4.53c-.12-.64.56-2.55.23-3.65s-3.73-10.76-12.28-15.35-14.53-3.26-14.53-3.26a42.67,42.67,0,0,0-9,2.29c-4.71,1.78-8.22,15.12-8.16,15.38a4.16,4.16,0,0,1,.59,1.66c0,.74-.54,1.66,0,2.2s.1,2.49.33,3.18.46.81.48,1.32-1.42-12.36,12-21C267.1,123.42,288.66,132.49,293.66,152Z" style="fill:#065F46"></path><path d="M255.08,144.32a.66.66,0,0,1,0,.14S255.09,144.46,255.08,144.32Z" style="fill:#065F46"></path><path d="M255.08,144.32a.78.78,0,0,1,0,.14S255.09,144.46,255.08,144.32Z" style="fill:#065F46"></path><path d="M258,129.66a1.3,1.3,0,0,1-1.29,1.32,1.29,1.29,0,0,1-1.22-.81h0c.21-.55.43-1.11.67-1.68h0a1.52,1.52,0,0,1,.52-.12A1.31,1.31,0,0,1,258,129.66Zm4.61-4.14a1.31,1.31,0,0,0-1.29,1.32,1.25,1.25,0,0,0,.44,1,25,25,0,0,1,1.88-1.8A1.35,1.35,0,0,0,262.62,125.52Zm-6.33,9a1.31,1.31,0,0,0-.14,2.61,25.19,25.19,0,0,1,.91-2.36A1.31,1.31,0,0,0,256.29,134.53Zm23-15.33a1.23,1.23,0,0,0-.16.63,1.31,1.31,0,0,0,1.32,1.29,1.29,1.29,0,0,0,1.27-1.1C280.91,119.69,280.1,119.42,279.33,119.2Zm4,10.17a1.31,1.31,0,1,0,1.32,1.29A1.31,1.31,0,0,0,283.37,129.37ZM265,119.68h0c-.75.22-1.55.47-2.36.75h0a1.32,1.32,0,0,0,1.32,1.3,1.32,1.32,0,0,0,1.05-2.06Zm6.53.24a1.31,1.31,0,1,0,1.32,1.29A1.31,1.31,0,0,0,271.52,119.92Zm5.38,5a1.31,1.31,0,1,0,1.32,1.29A1.31,1.31,0,0,0,276.9,124.88Zm9.78-1.42a1.31,1.31,0,1,0,1.32,1.29A1.3,1.3,0,0,0,286.68,123.46Zm2.95,9.48a1.31,1.31,0,1,0,1.32,1.29A1.31,1.31,0,0,0,289.63,132.94Zm3.24,14.38a1.29,1.29,0,0,0-.7.22c.32.77.62,1.57.88,2.38a1.31,1.31,0,0,0-.18-2.6Zm-6-9.14a1.54,1.54,0,0,0-.3,0c.5.61,1,1.25,1.46,1.9a1.19,1.19,0,0,0,.16-.65A1.3,1.3,0,0,0,286.85,138.18Zm5.89-10.13a1.31,1.31,0,0,0-.79,1.22,1.3,1.3,0,0,0,1.32,1.28,1.23,1.23,0,0,0,1-.43C293.78,129.45,293.28,128.75,292.74,128.05Zm.64,11.6a1.31,1.31,0,1,0,1.32,1.29A1.31,1.31,0,0,0,293.38,139.65Zm3.51,3.46a1.27,1.27,0,0,0,.45,1c.05-.65.09-1.4.11-2A1.31,1.31,0,0,0,296.89,143.11Zm-.4-8.91a1.29,1.29,0,0,0-1,1.28,1.31,1.31,0,0,0,1.32,1.29,1.24,1.24,0,0,0,.66-.19A24.84,24.84,0,0,0,296.49,134.2Z" style="fill:#fff;opacity:0.30000000000000004"></path><path d="M295.62,148.6a14.5,14.5,0,0,0-.75-2.67c-.3-.87-.63-1.74-1-2.6-.68-1.72-1.37-3.44-2.14-5.12-.19-.42-.37-.85-.59-1.24a6,6,0,0,0-.84-1.05c-.64-.67-1.32-1.29-2-1.92s-1.37-1.25-2.06-1.86l-2.09-1.83c1.48,1.12,2.92,2.28,4.32,3.5.7.61,1.39,1.24,2,1.9a6.15,6.15,0,0,1,.9,1.11c.23.41.42.83.62,1.26.74,1.7,1.44,3.42,2.07,5.16.31.88.62,1.75.89,2.64.13.45.26.89.37,1.34A7.1,7.1,0,0,1,295.62,148.6Z" style="fill:#050400;opacity:0.1"></path><path d="M289.26,130.6a23.25,23.25,0,0,1,2.67,2,22.66,22.66,0,0,1,2.39,2.31,15.69,15.69,0,0,1,2,2.69,9.29,9.29,0,0,1,1.13,3.12c-.09-.26-.17-.52-.25-.79a1.77,1.77,0,0,0-.15-.38l-.17-.38c0-.12-.1-.25-.16-.37l-.2-.36c-.14-.24-.25-.49-.41-.71l-.45-.68-.5-.66a7.52,7.52,0,0,0-.51-.64c-.17-.21-.34-.42-.53-.62a32.12,32.12,0,0,0-2.32-2.35c-.4-.37-.81-.74-1.23-1.09S289.69,131,289.26,130.6Z" style="fill:#050400;opacity:0.1"></path><path d="M254.25,137.15a17.48,17.48,0,0,1,.93-3c.37-1,.78-1.95,1.21-2.91a28.66,28.66,0,0,1,1.39-2.84,10.29,10.29,0,0,1,2-2.42,12.89,12.89,0,0,0-1,1.23,11.21,11.21,0,0,0-.84,1.31c-.24.46-.45.93-.67,1.41l-.64,1.44-1.27,2.87c-.21.48-.42,1-.61,1.45A13,13,0,0,0,254.25,137.15Z" style="fill:#050400;opacity:0.1"></path><path d="M254.51,140.39a17,17,0,0,1,.4-2.24,21,21,0,0,1,.63-2.19,8.22,8.22,0,0,1,.45-1.06c.18-.33.35-.67.54-1l.55-1c.2-.33.38-.66.59-1-.14.35-.3.69-.45,1l-.47,1c-.15.35-.33.68-.49,1a10.2,10.2,0,0,0-.41,1c-.26.7-.47,1.42-.7,2.14-.12.36-.22.72-.33,1.09S254.61,140,254.51,140.39Z" style="fill:#050400;opacity:0.1"></path><path d="M283.6,120.81c-2.14,1.8-7.07,5.86-8.39,6.15a9.07,9.07,0,0,1-1.37.14,49.56,49.56,0,0,0-6.74-3.68,28.75,28.75,0,0,0-4.37,3.43,27.84,27.84,0,0,1-4.83-1.92c1.15-2,2.48-3.66,3.93-4.21a42.67,42.67,0,0,1,9-2.29S276,117.28,283.6,120.81Z" style="fill:#050400;opacity:0.1"></path><path d="M267.14,120.46s-6.9-4.84-13.91-2.71c0,0,3.13,6.52,6.42,7.69,1.64.58,7.07-1.23,7.31-2.37A13.46,13.46,0,0,0,267.14,120.46Z" style="fill:#065F46"></path><path d="M259.84,117.49a1.31,1.31,0,0,1-1.14.69,1.29,1.29,0,0,1-1.27-1A14.57,14.57,0,0,1,259.84,117.49Zm-3.18,4.25a1.3,1.3,0,0,0-.83.3,14.93,14.93,0,0,0,1.71,2,1.33,1.33,0,0,0,.44-1A1.31,1.31,0,0,0,256.66,121.74Zm7.25-2.62a1.31,1.31,0,1,0,1.32,1.29A1.3,1.3,0,0,0,263.91,119.12Z" style="fill:#fff;opacity:0.30000000000000004"></path><path d="M267.14,120.46a13.46,13.46,0,0,1-.18,2.61.37.37,0,0,1-.07.14.38.38,0,0,1-.1.17l-.11.1a8,8,0,0,1-2.83,1.41,17.56,17.56,0,0,1-.53-3.19,4.74,4.74,0,0,1,1.21-2.68A17,17,0,0,1,267.14,120.46Z" style="fill:#050400;opacity:0.1"></path><path d="M269.17,120.66s8.69-5.46,14-5.37c0,0-.35,5.9-4.49,9.11-1.85,1.44-9.61.29-9.75-1A10.24,10.24,0,0,1,269.17,120.66Z" style="fill:#065F46"></path><path d="M281.78,119.8a1.31,1.31,0,1,1-1.32-1.29A1.31,1.31,0,0,1,281.78,119.8Zm-10.26.12a1.31,1.31,0,1,0,1.32,1.29A1.31,1.31,0,0,0,271.52,119.92Zm5.38,5a1.24,1.24,0,0,0-.63.17,9.86,9.86,0,0,0,1-.12A1,1,0,0,0,276.9,124.88Z" style="fill:#fff;opacity:0.30000000000000004"></path><path d="M271.18,119.49a5.92,5.92,0,0,1,1.16,3.15,5.14,5.14,0,0,1-.56,2.06c-1.56-.31-2.75-.77-2.81-1.25a10.29,10.29,0,0,1,.2-2.79S269.94,120.17,271.18,119.49Z" style="fill:#050400;opacity:0.1"></path><path d="M271.05,122.35a3.33,3.33,0,1,1-3.08-3.56A3.34,3.34,0,0,1,271.05,122.35Z" style="fill:#065F46"></path></g><g id="freepik--character-2--inject-36"><path d="M212.5,209.51a4.31,4.31,0,0,0,3.29-1c.25-.26.45-.58.71-.85a2.78,2.78,0,0,1,1.5-.7,10.72,10.72,0,0,0,1.82-.51c1.79-.74,3.5-2.18,3.54-4.22a6.27,6.27,0,0,0,6.26-4.7,6.13,6.13,0,0,0,.14-1.13,4,4,0,0,1,.08-1.65c.23-.48.82-.84,1.2-1.2a6,6,0,0,0,.87-1,2.4,2.4,0,0,0-.24-3.2,4,4,0,0,0,1.51-4.11,6.89,6.89,0,0,0-3.21-4.74,4.73,4.73,0,0,0-2.11-6.29,4.19,4.19,0,0,0-3.33-5.34,6.19,6.19,0,0,0-3.43-4.71,2.52,2.52,0,0,1-.93-.74,4.68,4.68,0,0,0-1.88-3.54,3.54,3.54,0,0,0-4.14.06,6.94,6.94,0,0,0-2.91-1.73,4.76,4.76,0,0,0-4.64.9,6.73,6.73,0,0,0-9.93,1.68,4.89,4.89,0,0,0-5.33-.73c-2.12.93-3.41,3-4.33,5.05a3.4,3.4,0,0,0-4.37.59,3.74,3.74,0,0,0-.7,3.52,5.22,5.22,0,0,0-2.69,3,3.13,3.13,0,0,0,.94,3.25,4.65,4.65,0,0,0,.32,7.83,5.55,5.55,0,0,0-.2,10.19,5,5,0,0,0-1,5.34,7.33,7.33,0,0,0,5.15,4.06,5,5,0,0,0,1.8,5.19,6.42,6.42,0,0,0,5,1,4.68,4.68,0,0,1-5.21,0,5.25,5.25,0,0,1-1.67-6.24s0,0,0,0a5.1,5.1,0,0,0,1.47,6.61,5.33,5.33,0,0,0,6.49-.52,5.79,5.79,0,0,0,9.78,3.82C205.61,216.26,212.16,215,212.5,209.51Zm7.27-46.73a.91.91,0,0,0-.08-.13,4.77,4.77,0,0,0-.72-1.05,4.83,4.83,0,0,0-3.82-1.55c-.25,0-.76.11-.76.11l-.12-.15a3.75,3.75,0,0,1,4.28.61A4.52,4.52,0,0,1,219.77,162.78Zm-37.42,6.16h0a3.12,3.12,0,0,1,.54-3.08c1.16-1.36,2.63-1.21,4-.61a.54.54,0,0,0,0,.11,3.61,3.61,0,0,0-3.85,1.49A4,4,0,0,0,182.35,168.94Zm21.8,44.69a6.51,6.51,0,0,0,8.06-4.12h0C211.44,214.12,207.64,215,204.15,213.63Z" style="fill:#263238"></path><path d="M231.75,248.05c1.82,2.75,16.43,3,16.48-.76,0-3-9.95-8.35-14-6.2C231.57,242.52,230.47,246.12,231.75,248.05Z" style="fill:#d3766a"></path><path d="M215.69,226c-4.76,2-8.48,8.07-7.77,13.71s6,9.84,12.84,7.79a26.6,26.6,0,0,0,9.62-5.84s.27,4.92,1.13,6.05c1.69,2.26,7.7,2.63,9.45-1.2,1.25-2.73,5-19.39-5-23.16C230.34,221.17,221.6,223.51,215.69,226Z" style="fill:#d3766a"></path><path d="M229.67,242.14a13.17,13.17,0,0,0,2.88-3.47c.37-.62.7-1.27,1-1.92a12.81,12.81,0,0,0,.85-2.2.07.07,0,1,1,.13,0c-.08.39-.11.79-.21,1.18a11.72,11.72,0,0,1-.38,1.14,9.73,9.73,0,0,1-1.06,2,13.35,13.35,0,0,1-3.18,3.27S229.64,242.17,229.67,242.14Z" style="fill:#263238"></path><path d="M240.13,244.94a10.42,10.42,0,0,0,1.58-2.95c.17-.5.3-1,.42-1.5a7.75,7.75,0,0,0,.25-1.64.06.06,0,0,1,.11,0c0,.28.06.55,0,.83a8,8,0,0,1-.08.83,7,7,0,0,1-.44,1.57,10.67,10.67,0,0,1-1.85,2.89S240.11,245,240.13,244.94Z" style="fill:#263238"></path><path d="M229.49,227c-.11-.39-7.71,1.93-14.47,1.05-8.21-1.06-12.93-3.47-13.42-3.24-1,.45-4.16,9.8-2.67,15.43s8.34,10.21,14.5,10.05S235.43,248,229.49,227Z" style="fill:#065F46"></path><g style="opacity:0.6000000000000001"><path d="M229.49,227c-.11-.39-7.71,1.93-14.47,1.05-8.21-1.06-12.93-3.47-13.42-3.24-1,.45-4.16,9.8-2.67,15.43s8.34,10.21,14.5,10.05S235.43,248,229.49,227Z" style="fill:#fff"></path></g><path d="M201.6,224.85c9.67,5.79,27.11,3.11,27.89,2.19,0,0,1.27-5.91-6.14-18.31-2.07-3.47-10.7-4-13.3-1.71C203.08,213.19,201.44,224.75,201.6,224.85Z" style="fill:#065F46"></path><g style="opacity:0.6000000000000001"><path d="M201.6,224.85c9.67,5.79,27.11,3.11,27.89,2.19,0,0,1.27-5.91-6.14-18.31-2.07-3.47-10.7-4-13.3-1.71C203.08,213.19,201.44,224.75,201.6,224.85Z" style="fill:#fff"></path></g><path d="M220.61,215a7.24,7.24,0,0,1-2.28,3.27,7.21,7.21,0,0,1-3.4-2.1c-1-1.26-.86-2.87.17-3.43,1.48-.81,2.46,1.86,2.46,1.86s-.17-2.83,1.52-2.68C220.25,212,221,213.47,220.61,215Z" style="fill:#065F46"></path><path d="M224,221.13a4.55,4.55,0,0,1-2.08,1.4,4.57,4.57,0,0,1-1.51-2c-.3-1,.14-1.89.88-2,1-.13,1,1.65,1,1.65s.54-1.7,1.49-1.22A1.44,1.44,0,0,1,224,221.13Z" style="fill:#065F46"></path><path d="M224.89,215.66a3.07,3.07,0,0,1-1.63.36,3.05,3.05,0,0,1-.43-1.61c0-.67.55-1.13,1-1,.68.17.22,1.26.22,1.26s.75-.91,1.22-.39A1,1,0,0,1,224.89,215.66Z" style="fill:#065F46"></path><path d="M222,208.09c.59.86-.07,2.46-3.69,2.13-2.15-.19-5.33-1.14-5.48-3.17C212.75,205.52,220.91,206.48,222,208.09Z" style="fill:#065F46"></path><path d="M220.47,230.29c-5.2-3.16-13.37-1.77-17.58,4.05s-1.47,16.83,11.57,16.3S227.7,234.69,220.47,230.29Z" style="fill:#065F46"></path><path d="M225.79,253.28c1.39,3,15.81,5.38,16.4,1.66.48-3-8.61-9.71-12.92-8.18C226.41,247.79,224.81,251.18,225.79,253.28Z" style="fill:#d3766a"></path><path d="M213.12,229.09c-5,1.26-9.57,6.75-9.69,12.44s4.51,10.6,11.56,9.58a26.66,26.66,0,0,0,10.38-4.38s-.45,4.91.23,6.16c1.34,2.47,7.23,3.72,9.52.19,1.64-2.53,7.78-18.45-1.51-23.64C228.32,226.48,219.32,227.52,213.12,229.09Z" style="fill:#d3766a"></path><path d="M224.59,247.14a13.59,13.59,0,0,0,3.36-3c.45-.57.87-1.16,1.27-1.76a12,12,0,0,0,1.17-2.06.07.07,0,0,1,.13.05c-.14.38-.23.77-.39,1.14a10.72,10.72,0,0,1-.54,1.07,9.81,9.81,0,0,1-1.34,1.85,13.37,13.37,0,0,1-3.62,2.77S224.56,247.16,224.59,247.14Z" style="fill:#263238"></path><path d="M234.53,251.43a10,10,0,0,0,2-2.69,13.67,13.67,0,0,0,.63-1.42,7.59,7.59,0,0,0,.49-1.58c0-.06.12-.05.11,0,0,.28,0,.55-.07.82a5.33,5.33,0,0,1-.2.81,6.39,6.39,0,0,1-.66,1.49,10.43,10.43,0,0,1-2.26,2.59S234.51,251.45,234.53,251.43Z" style="fill:#263238"></path><path d="M210.25,210.1a6.86,6.86,0,0,1,8.42,7.48c-.42,5.29-6.19,7.32-9.33,5C204.91,219.43,204.84,211.43,210.25,210.1Z" style="fill:#065F46"></path><path d="M240.05,217.78c-1.55.85-9.89,6.95-16.18,6.89-6.7-.08-12.22-1.27-14.25-3.17-5.55-5.22-.59-11.39,3.95-11.29,5.71.12,8.34,2,11.58,2.11.37,0,8.09-2.44,11.55-2.35C238.91,210,242,216.72,240.05,217.78Z" style="fill:#d3766a"></path><path d="M235.4,210.18c.08-.87,1-2.28,1-3s.24-2.82,1-2.45.95,3.14,1,3.78,3.14-2.26,3.9-.85-1.56,3-1.41,3.25,2.79-.88,3.37.39-2.42,2.05-2.38,2.15,1.8-1.66,2.43-.64-2.14,2.67-2.06,2.89,2,.25,2.23,1.45-2.84.59-3.1.59-2.12.65-2.57.21S235.33,210.79,235.4,210.18Z" style="fill:#d3766a"></path><path d="M228.62,211.42a9.26,9.26,0,0,0-3.53.83c-.28.12-.54.27-.81.41s-.53.31-.77.5a7.45,7.45,0,0,0-1.34,1.23,14.42,14.42,0,0,1,1.47-1,13.19,13.19,0,0,1,1.58-.83,16.71,16.71,0,0,1,1.66-.64A17.16,17.16,0,0,1,228.62,211.42Z" style="fill:#263238"></path><path d="M225.15,212.32c-.8-.27-1.6-.49-2.4-.69s-1.61-.38-2.42-.55-1.63-.31-2.44-.44-1.64-.24-2.47-.32a18.3,18.3,0,0,0,2.37.79c.8.22,1.61.4,2.42.57s1.63.3,2.45.41A20.57,20.57,0,0,0,225.15,212.32Z" style="fill:#263238"></path><path d="M216.58,209.83a4.82,4.82,0,0,0,.94.76,4.65,4.65,0,0,0,1.11.5,4.29,4.29,0,0,0-.95-.76A4.08,4.08,0,0,0,216.58,209.83Z" style="fill:#263238"></path><path d="M214.18,223.57a58.42,58.42,0,0,0,6.18,1c1,.1,2.09.17,3.14.17l.8,0c.27,0,.54-.05.8-.1l.78-.16c.26-.05.52-.11.77-.18a42,42,0,0,0,5.93-2.06c1-.41,1.91-.87,2.83-1.37l.68-.39.66-.42c.22-.14.43-.3.65-.45s.4-.33.6-.49a17.55,17.55,0,0,1-2.73,1.48c-.94.44-1.9.83-2.87,1.2a61.45,61.45,0,0,1-5.9,1.91l-.75.18c-.25.07-.5.11-.75.16s-.5.06-.74.1l-.77,0c-1,0-2.06,0-3.09-.07C218.33,224,216.25,223.77,214.18,223.57Z" style="fill:#263238"></path><path d="M215,224.24a4.81,4.81,0,0,0,1.36.08,4.15,4.15,0,0,0,1.34-.27,6.89,6.89,0,0,0-1.36,0A5.77,5.77,0,0,0,215,224.24Z" style="fill:#263238"></path><path d="M237.75,216.87a10,10,0,0,1-1.49-2.24,9.74,9.74,0,0,1-.73-2.64c0-.07.09-.1.1,0a11.27,11.27,0,0,0,.83,2.56,10,10,0,0,0,1.36,2.3S237.78,216.91,237.75,216.87Z" style="fill:#263238"></path><path d="M223,204.92l.73-.12c-2.33,1.22-2.4,2.82-2.4,2.82s-.07,1.09-2.23,1.34a4.52,4.52,0,0,1-3.27-.66,9,9,0,0,0-3.12-1.57c-4.56-.29-8-1.42-11.58-5.18-4.87-5.14-8.45-22.29-2.58-28.5,7.29-7.7,19.17-8.89,25.46-5,3,1.83,7.22,8.28,9.79,14.46a25,25,0,0,1,2.22,8.77C236,198.43,229.08,202.73,223,204.92Z" style="fill:#d3766a"></path><path d="M215.06,184a9.78,9.78,0,0,0,1-.85,2,2,0,0,0,.84-1.06.66.66,0,0,0-.4-.71,1.66,1.66,0,0,0-1.62.45,2.41,2.41,0,0,0-.92,1.5A.71.71,0,0,0,215.06,184Z" style="fill:#263238"></path><path d="M227.49,178.27c-.43.1-.84.13-1.28.19a2.12,2.12,0,0,1-1.34,0,.66.66,0,0,1-.28-.77,1.65,1.65,0,0,1,1.38-.93,2.43,2.43,0,0,1,1.73.27A.71.71,0,0,1,227.49,178.27Z" style="fill:#263238"></path><path d="M223,191.9s0,.23.08.56c.15.74.58,2,1.79,1.93a2.09,2.09,0,0,0,1.24-.49,5.59,5.59,0,0,0,1.48-2.38A5.08,5.08,0,0,1,223,191.9Z" style="fill:#263238"></path><path d="M223.08,192.46c.15.74.58,2,1.79,1.93a2.09,2.09,0,0,0,1.24-.49,3.22,3.22,0,0,0-3-1.44Z" style="fill:#ff99ba"></path><path d="M224.79,181.32c1.36,2.42.79,1.59,2.25,3.94.58-.18,3.16-1.18,3.06-.88a22.58,22.58,0,0,1-1.78,3.33c.58.57,2,.83,2,.91-1.86,4.49-5.73,4-7.22,3.39-.3-.12-.21-.16,0-.12,1.38.31,5,.15,6.35-2.95a4,4,0,0,1-1.6-1.05c-.05-.06,1.05-1.9,1.41-2.8-.79.27-1.74.68-2.32.88-.14.05-1.35-1.78-2.33-4.55A.12.12,0,0,1,224.79,181.32Z" style="fill:#263238"></path><path d="M217.42,185.26c-2.08.87-.18,5,1.74,4.14S219.15,184.53,217.42,185.26Z" style="fill:#263238"></path><path d="M216.83,185.71c-.25.32-.44.79-.82,1s-.9-.08-1.31-.36c0,0-.07,0,0,.07.22.71.73,1.34,1.53,1.19s1-.92.94-1.69C217.11,185.74,216.93,185.58,216.83,185.71Z" style="fill:#263238"></path><path d="M227.05,181c1.72-.95,3.68,2.92,2.09,3.8S225.61,181.76,227.05,181Z" style="fill:#263238"></path><path d="M227.58,180.83c.41,0,.89.18,1.26,0s.54-.73.6-1.23c0-.05.06,0,.08,0a1.42,1.42,0,0,1-.1,1.94,1.45,1.45,0,0,1-1.9-.4C227.42,181.06,227.42,180.82,227.58,180.83Z" style="fill:#263238"></path><path d="M223.77,204.28c1.47-.82,3.08-1.32,4.53-2.2a21.73,21.73,0,0,0,3.88-3,15.45,15.45,0,0,0,3.16-4.12c0-.1,0,0,0,.07a12.38,12.38,0,0,1-2.41,3.95,17.91,17.91,0,0,1-3.37,3.08,20,20,0,0,1-4.13,2.2c-1.65.66-3.65,1.37-4,3.36a0,0,0,1,1-.08,0A4.34,4.34,0,0,1,223.77,204.28Z" style="fill:#263238"></path><path d="M215.83,208.3a4.31,4.31,0,0,0-1.54-1.12,9.52,9.52,0,0,0-1.85-.54c-1.25-.24-2.48-.41-3.7-.69a10.72,10.72,0,0,1-3.45-1.2,37,37,0,0,1-3.07-2.16,15.64,15.64,0,0,0,2.81,2.57,8.32,8.32,0,0,0,1.73.89,15.5,15.5,0,0,0,1.86.5c1.24.27,2.51.41,3.74.56a9.93,9.93,0,0,1,1.82.35A5.05,5.05,0,0,1,215.83,208.3Z" style="fill:#263238"></path><path d="M227.81,170.73a17.21,17.21,0,0,1-1.63-1.51s-.61-1.25-3.32-2.84a7.58,7.58,0,0,0-5.09-1.17s-2.43-1.06-6.74-.15a17.11,17.11,0,0,0-4.6,1.9c-.89.74-2.13.7-3.18,1.08a8.91,8.91,0,0,0-2.68,1.57,8.66,8.66,0,0,0-1.68,1.94,11.66,11.66,0,0,0-.67,1.32,3.87,3.87,0,0,1-1.47,1.61,6.32,6.32,0,0,0-2.41,7.2c.37,1.17-.83,2.25-1,3.45A4.1,4.1,0,0,0,196,189.5a4.58,4.58,0,0,0,.5,6c1.25,1.2,3,1.27,4.65,1.05a5.36,5.36,0,0,0,.9-.21c3.28-.75,5.27-4.91,3-7.7v0a9.57,9.57,0,0,0,3.31-4.28,7.84,7.84,0,0,0-.18-5.5c4.68.63,9.34-3.57,8.46-8.2a4.64,4.64,0,0,0,4.56-.5,4.63,4.63,0,0,0,3.69,3,4,4,0,0,0,2.18,1.56,3.37,3.37,0,0,0,2.42-.07A4.63,4.63,0,0,0,227.81,170.73ZM204.76,194c.61-1.17.87-2.59.31-5.17A4.46,4.46,0,0,1,204.76,194Zm8-16.72a8.12,8.12,0,0,0,3.51-6.38A6.43,6.43,0,0,1,212.78,177.24Z" style="fill:#263238"></path><path d="M204.88,194.36s-4.7-4.14-7.78-3.16c-3.26,1-1.81,7.1,1.26,8.72,3.61,1.91,7.19-.56,7.19-.56Z" style="fill:#d3766a"></path><path d="M199.31,194.27a7.47,7.47,0,0,0-1.9-.53.07.07,0,0,1,0-.14c2.63.11,5.61,1.77,6.24,4.53a.09.09,0,0,1-.16.07l-.43-.63a5.25,5.25,0,0,0-2-1.14,4.54,4.54,0,0,0-2.37.09c-.09,0-.13-.1,0-.14a4.44,4.44,0,0,1,3.62.08,7.08,7.08,0,0,0-1.42-1.36,8.08,8.08,0,0,0-1.53-.83" style="fill:#263238"></path><path d="M204.86,199.48s0,0,0,0S204.84,199.49,204.86,199.48Z" style="fill:#263238"></path><path d="M198,175.36s-.31-5.38,3.21-8.47c0,0,2.49,3.89,2,6.07-.24,1.09-3.05,3.43-3.75,3.18A8.32,8.32,0,0,1,198,175.36Z" style="fill:#065F46"></path><path d="M199.49,169a.83.83,0,0,1-.67,1.4A9.41,9.41,0,0,1,199.49,169Zm3,2.25a.81.81,0,0,0,.69.1,11.27,11.27,0,0,0-.5-1.59.79.79,0,0,0-.45.34A.83.83,0,0,0,202.46,171.24Zm-3.86,3.06a.83.83,0,1,0-.26-1.15A.84.84,0,0,0,198.6,174.3Z" style="fill:#fff;opacity:0.30000000000000004"></path><path d="M198,175.36a8.59,8.59,0,0,0,1.48.77.11.11,0,0,0,.1,0h.12l.1,0a5,5,0,0,0,1.71-1.06,11.1,11.1,0,0,0-1.55-1.36,3,3,0,0,0-1.87-.24A11.19,11.19,0,0,0,198,175.36Z" style="fill:#050400;opacity:0.1"></path><path d="M197.41,176.53s-5.9,2.88-7.65,5.82c0,0,3.32,1.8,6.47.63,1.4-.52,3.39-5.13,2.76-5.62A6.56,6.56,0,0,0,197.41,176.53Z" style="fill:#065F46"></path><path d="M192.44,181.94a.84.84,0,0,1,1.15-.26.85.85,0,0,1,.26,1.16.84.84,0,0,1-1.41-.9Zm4-3.23a.84.84,0,0,0,.9-1.41.84.84,0,1,0-.9,1.41Zm.52,3.67a4.48,4.48,0,0,0,.41-.52.86.86,0,0,0-.31.29A.94.94,0,0,0,197,182.38Z" style="fill:#fff;opacity:0.30000000000000004"></path><path d="M196.09,177.22a3.83,3.83,0,0,0,1.32,1.7,3.19,3.19,0,0,0,1.31.38c.36-1,.51-1.75.27-1.94a6.54,6.54,0,0,0-1.59-.83S196.88,176.78,196.09,177.22Z" style="fill:#050400;opacity:0.1"></path><path d="M197.69,178.12a2.13,2.13,0,1,0-.9-2.88A2.13,2.13,0,0,0,197.69,178.12Z" style="fill:#065F46"></path></g><g id="freepik--Plant--inject-36"><path d="M410,231.34s29.42-4.12,22.54-39.63C432.52,191.71,399.66,199.09,410,231.34Z" style="fill:#065F46"></path><path d="M410,231.34s29.42-4.12,22.54-39.63C432.52,191.71,399.66,199.09,410,231.34Z" style="opacity:0.1"></path><path d="M411.47,223.92c.58-1.79,1.25-3.56,2-5.29,0-.23.06-.45.08-.67l.12-1.47q.12-1.59.21-3.18c.13-2.12.27-4.24.3-6.37,0-.11.18-.11.18,0,0,2.13.05,4.25,0,6.37,0,1.06-.1,2.13-.17,3.18,0,.24,0,.48,0,.71a63.43,63.43,0,0,1,5.9-10.08,50.61,50.61,0,0,1,3.22-4.08c1.17-1.34,2.41-2.62,3.59-4,.08-.09.21.05.13.13a52.15,52.15,0,0,0-5.67,7.54c-.9,1.35-1.74,2.74-2.54,4.15l.27-.11,1.05-.42,2.4-.91c1.58-.59,3.16-1.16,4.73-1.76.1,0,.16.13.07.16-1.57.63-3.11,1.29-4.66,2l-2.28,1c-.38.17-.76.32-1.15.48a3.6,3.6,0,0,1-.78.27c-.59,1.07-1.18,2.14-1.72,3.23a76,76,0,0,0-3.59,8.47l-.21.61a16.64,16.64,0,0,1,2.41-1.16l3-1.39c2.06-.95,4.11-1.91,6.09-3,.1-.06.19.1.09.15-2,1.11-4,2.28-6,3.38-1,.55-2,1.09-3.07,1.59a9.55,9.55,0,0,1-2.76,1.1,35.18,35.18,0,0,0-1.93,8.35c-.33,4-.29,8.06-.38,12.09,0,.07-.1.06-.11,0-.29-3.65-.46-7.33-.47-11A31.79,31.79,0,0,1,411.47,223.92Z" style="fill:#263238"></path><path d="M416,203a34.52,34.52,0,0,1,.29,6.26c0,.06-.08.06-.09,0-.11-2.08-.13-4.15-.37-6.21C415.81,203,416,202.93,416,203Z" style="fill:#263238"></path><path d="M424.41,204.82a22.1,22.1,0,0,0,3.78-1.86c.1-.06.19.1.09.16a14.42,14.42,0,0,1-3.82,1.82C424.39,205,424.34,204.85,424.41,204.82Z" style="fill:#263238"></path><path d="M409.05,287.71c0-3.25.08-6.5.12-9.75.06-10.8.15-21.59.34-32.39q.24-12.84.6-25.7c0-.05,0-.08.08-.11l0-7c0-.06.07-.09.14-.09s.14,0,.14.09c0,2.35,0,4.69.05,7a.12.12,0,0,1,.06.1c.44,15.25.82,30.5.91,45.76,0,3.1,0,6.2,0,9.3q.17,14.93.12,29.84c0,1.58,0,3.17,0,4.75,0,9.1-.09,18.2-.09,27.3,0,.49-.55.73-1.13.76s-1.36-.24-1.36-.8c0-10-.07-20.07-.07-30.1C409,300.36,409,294,409.05,287.71Z" style="fill:#263238"></path><path d="M421.33,277.84s14.15-10.49,27.58-3.4,15.53,34.38,15.53,34.38-19.72,2.82-32.14-9C420.34,288.43,421.33,277.84,421.33,277.84Z" style="fill:#065F46"></path><path d="M417.47,278.48a17,17,0,0,1,8.2-1.07,12.51,12.51,0,0,1,1.73-.17c.67,0,1.33-.09,2-.15l4.12-.29c2.79-.21,5.59-.38,8.38-.66.1,0,.12.17,0,.18-2.76.35-5.5.74-8.27,1-1.42.15-2.84.29-4.27.4-.33,0-.68.06-1,.1.42.09.84.19,1.25.31a33.91,33.91,0,0,1,6.41,2.6c1.12.2,2.23.52,3.32.77,1.75.41,3.49.87,5.23,1.32,3.44.9,6.84,1.91,10.25,2.91.11,0,.06.2-.06.17-3.4-.84-6.83-1.6-10.24-2.41-1.66-.4-3.32-.79-5-1.2l-1.3-.3a41.58,41.58,0,0,1,10.06,8.75,54.18,54.18,0,0,1,7,11c.05.1-.09.2-.15.1a53.73,53.73,0,0,0-8.46-11.1l.18.56c.27.83.53,1.67.79,2.5.53,1.67,1.05,3.33,1.55,5,0,.12-.13.15-.17.05-.6-1.62-1.16-3.24-1.73-4.87l-.84-2.39c-.15-.41-.29-.82-.43-1.24,0-.13-.09-.25-.13-.38a49.47,49.47,0,0,0-5-4.27,38.07,38.07,0,0,0-7.51-4.31c.05.25.09.49.14.73l.42,1.93c.27,1.34.53,2.68.8,4,.53,2.73.86,5.51,1.37,8.25,0,.11-.15.15-.17,0-.64-2.76-1.45-5.46-2.07-8.23-.3-1.37-.62-2.75-.9-4.14-.14-.64-.27-1.29-.4-1.94-.07-.36-.15-.72-.2-1.08l-.76-.32c-3.71-1.37-7.82-2.37-11.78-1.61a11.55,11.55,0,0,0-8.51,6.82c-.13.31-.62.12-.54-.2C411.53,282.31,414.36,279.79,417.47,278.48Z" style="fill:#263238"></path><path d="M439.13,290.14l1.2,5.38a42.28,42.28,0,0,1,1,5.23c0,.07-.1.07-.12,0a39.07,39.07,0,0,1-1.2-5.27q-.53-2.64-1-5.3C438.94,290.07,439.11,290,439.13,290.14Z" style="fill:#263238"></path><path d="M452.82,294.7c1.8.91,3.54,1.95,5.43,2.7a.09.09,0,1,1-.08.16,58.65,58.65,0,0,1-5.4-2.79S452.77,294.68,452.82,294.7Z" style="fill:#263238"></path><path d="M418.15,258.58s17.29,1.11,25.33-10.3,6.24-27.68,6.24-27.68-18.16,2.21-25.37,10.39S418.15,258.58,418.15,258.58Z" style="fill:#065F46"></path><path d="M410,275.65c.6-1.86,1.34-3.68,2-5.5s1.39-3.47,2.15-5.18a108.38,108.38,0,0,1,5.19-10.19c1.22-2.1,2.52-4.14,3.87-6.15,0-.3.09-.61.14-.92.08-.53.15-1.07.24-1.6.17-1.1.36-2.19.54-3.28.4-2.39.89-4.76,1.27-7.15,0-.12.2-.11.18,0-.35,2.36-.58,4.73-.91,7.09-.17,1.16-.32,2.33-.49,3.48-.07.42-.13.84-.2,1.26a123.61,123.61,0,0,1,8.55-11.1l1.27-1.41a3.2,3.2,0,0,1,.16-.39l.37-1c.26-.69.5-1.38.75-2.07q.74-2,1.29-4.11a.09.09,0,0,1,.17.05c-.35,1.42-.72,2.84-1.13,4.24q-.3,1-.66,2l-.13.33c2.21-2.4,4.52-4.73,6.85-7,.08-.08.2,0,.12.13a123.43,123.43,0,0,0-12.25,15,11.45,11.45,0,0,1,1.28-.33c1.33-.25,2.67-.44,4-.61,2.82-.36,5.62-.72,8.43-1.16.11,0,.16.15,0,.17-2.68.53-5.33,1.13-8,1.75-1.26.28-2.52.53-3.78.78a26.35,26.35,0,0,0-3,.86c-.28.4-.57.8-.84,1.2-1.27,1.85-2.49,3.73-3.68,5.63l1.76-.34q2-.39,4-.72c2.64-.44,5.28-.9,7.89-1.49a.09.09,0,0,1,0,.17c-2.65.62-5.27,1.35-7.89,2.05-1.27.34-2.54.64-3.82.93l-1.92.41a5,5,0,0,1-.78.14q-3.79,6.13-7.09,12.56-1.46,2.82-2.8,5.7c-.92,2-1.71,4-2.57,6C410.52,276.25,409.89,276.08,410,275.65Z" style="fill:#263238"></path><path d="M427.73,235.9c.33-1.64.68-3.29,1-4.93,0-.12.2-.06.18.05-.33,1.62-.64,3.24-.94,4.87a47.32,47.32,0,0,1-1,4.85s0,0,0,0A34.39,34.39,0,0,1,427.73,235.9Z" style="fill:#263238"></path><path d="M437.82,235.42c.8-.4,1.65-.72,2.48-1l1.32-.52.66-.26a3.43,3.43,0,0,0,.73-.32c.13-.1.22.13.09.15a3.19,3.19,0,0,0-.74.3l-.66.29-1.26.57a23.3,23.3,0,0,1-2.55,1A.1.1,0,0,1,437.82,235.42Z" style="fill:#263238"></path><path d="M400.45,245S390,225.44,374.06,222.41s-25.66,13.36-25.66,13.36S360,250.6,374.62,253.18,400.45,245,400.45,245Z" style="fill:#065F46"></path><path d="M363.39,231.17a43.22,43.22,0,0,1,12.49.15l-.71-.38-3.53-1.82c-2.45-1.27-4.92-2.62-7.48-3.65a.09.09,0,1,1,.07-.16c2.49,1.16,5.08,2.13,7.57,3.28,1.25.57,2.48,1.17,3.7,1.82.78.41,1.65.81,2.42,1.3A43.62,43.62,0,0,1,388,235.08c-.66-.73-1.32-1.45-2-2.17-1.48-1.63-2.94-3.33-4.57-4.81-.09-.08,0-.2.13-.13,1.67,1.52,3.43,2.92,5,4.49.79.76,1.54,1.56,2.27,2.37.36.41.73.83,1.07,1.26a42,42,0,0,1,21.35,28.82c0,.11-.14.17-.17.06a48.15,48.15,0,0,0-11.71-19.81,46,46,0,0,0-21.33-12.34,46.76,46.76,0,0,0-14.72-1.33A.16.16,0,0,1,363.39,231.17Z" style="fill:#263238"></path><path d="M348.39,235.77S360,250.6,374.62,253.19c11.15,2,20.32-3.84,24-6.7l.8-1.32s-7.53-6.36-21.79-10S348.39,235.77,348.39,235.77Z" style="opacity:0.1"></path><path d="M372.64,224.2a37.85,37.85,0,0,1,3.53,2.34,22.78,22.78,0,0,1,3.08,2.81c.08.09-.05.21-.14.13-1.06-.92-2.12-1.84-3.22-2.71a32,32,0,0,0-3.35-2.41C372.45,224.3,372.54,224.14,372.64,224.2Z" style="fill:#263238"></path><path d="M363.9,227.51c.59.25,1.19.46,1.78.71l1.78.73c.12.05.06.26-.07.21l-1.77-.72c-.6-.24-1.18-.52-1.77-.76C363.74,227.64,363.79,227.47,363.9,227.51Z" style="fill:#263238"></path><path d="M402.54,269.59s-2.8,19.39-17.38,26.17-32.36,0-32.36,0S359.79,253.81,402.54,269.59Z" style="fill:#065F46"></path><path d="M362.85,283.15c1.34-.15,2.68-.38,4-.63l2-.37,1-.2c.4-.37.78-.74,1.19-1.09a58.86,58.86,0,0,1,8.91-6.47,50.93,50.93,0,0,1,5.35-2.75l-.28,0-4.8.21c-3.2.14-6.4.21-9.6.42-.11,0-.11-.17,0-.18,3.21-.22,6.4-.57,9.61-.84l4.66-.42,2.4-.21.62-.06c.83-.31,1.67-.61,2.52-.87a22.67,22.67,0,0,1,12.35-.68c3.67.94,7.33,3.34,8.28,7.21,0,.13-.18.22-.24.09-1.36-3.23-4.95-4.86-8.19-5.53a19.5,19.5,0,0,0-6.6-.13,15.72,15.72,0,0,1-.74,2.93c-.4,1.37-.8,2.73-1.21,4.09-.83,2.73-1.74,5.43-2.55,8.15,0,.12-.2.06-.17,0,.68-2.72,1.25-5.47,1.91-8.19.32-1.34.66-2.68,1-4a23,23,0,0,1,.73-2.76,34.05,34.05,0,0,0-3.78.89,56.92,56.92,0,0,0-6.61,2.42c-.21,1.39-.52,2.76-.84,4.12-.4,1.71-.84,3.41-1.38,5.08a.09.09,0,0,1-.17,0c0-.11,0-.21.07-.32h0c.33-1.59.68-3.17,1-4.75.27-1.28.52-2.56.8-3.84-1.82.82-3.6,1.71-5.32,2.7,0,.39-.13.79-.19,1.15-.1.67-.22,1.33-.35,2-.27,1.5-.57,3-.93,4.47a70.32,70.32,0,0,1-2.5,8.43.09.09,0,0,1,0,.12l-.08.09c-.06.08-.16,0-.15-.09.68-2.87,1.45-5.72,2.08-8.61.32-1.44.63-2.88.92-4.32.15-.72.28-1.45.42-2.17,0-.21.06-.43.1-.65a57.82,57.82,0,0,0-5.68,3.79,61.05,61.05,0,0,0-8.69,7.93c-.11.12-.31,0-.22-.17A54.44,54.44,0,0,1,367,284.8c.73-.79,1.49-1.55,2.27-2.29l-.24,0c-.68.12-1.37.22-2.06.31-1.34.18-2.7.31-4.05.46C362.78,283.34,362.73,283.16,362.85,283.15Z" style="fill:#263238"></path><path d="M373.09,289.73h0c0-.16,0-.33.08-.5s.14-.42.17-.63h0c.3-1.3.55-2.6.79-3.91,0-.09.16-.07.16,0a16.4,16.4,0,0,1-1.11,5.07c0,.05-.12,0-.11,0Z" style="fill:#263238"></path><path d="M385.3,289.41a.08.08,0,0,1,.09-.08c.41-1.71.8-3.43,1.15-5.16.19-.91.38-1.82.55-2.73q.15-.74.27-1.47a4.4,4.4,0,0,1,.32-1.26.09.09,0,0,1,.16,0,8.55,8.55,0,0,1-.36,2.6c-.18.95-.37,1.9-.57,2.84q-.65,2.86-1.45,5.7c0,.1-.2.08-.19,0Z" style="fill:#263238"></path><path d="M364.18,277.56c2.66-.36,5.32-.75,8-1.07.11,0,.16.16,0,.18-2.66.39-5.32.72-8,1.07C364.11,277.75,364.06,277.58,364.18,277.56Z" style="fill:#263238"></path><path d="M410,224.11s8.92-39.15-33.14-55C376.87,169.12,365.22,220.65,410,224.11Z" style="fill:#065F46"></path><path d="M400.93,201.91l-.45-.28c-.8-.43-1.59-.88-2.38-1.32l-4.88-2.73c-3.21-1.8-6.38-3.67-9.61-5.42a.09.09,0,0,1,.09-.16c3.24,1.76,6.54,3.41,9.79,5.13l4.83,2.55,2,1c-1.41-2.66-2.91-5.27-4.55-7.78-2.2-3.35-4.61-6.54-7.12-9.67a.15.15,0,0,1,.21-.2A66.74,66.74,0,0,1,398.55,195c0-.13,0-.27,0-.4-.05-1-.07-2-.09-2.93,0-1.91.07-3.82,0-5.73,0-.11.18-.11.18,0,.08,1.88.3,3.75.41,5.63q.09,1.41.12,2.82c0,.5.07,1.08.05,1.64.86,1.38,1.7,2.77,2.48,4.19a73,73,0,0,1,3.76,7.88c0-1,.1-1.94.16-2.92.13-2.14.39-4.28.48-6.42a.09.09,0,0,1,.18,0c0,2.15.05,4.29,0,6.44,0,1.07-.07,2.14-.14,3.21,0,.39-.05.79-.07,1.2a71,71,0,0,1,3.17,10.75,114.83,114.83,0,0,1,1.57,11.82s0,0-.05,0a62.35,62.35,0,0,0-2.23-10.54c-.52-1.85-1.07-3.68-1.66-5.51-1.75-.82-3.42-1.85-5.12-2.79s-3.51-1.92-5.27-2.88c-3.51-1.93-7-3.89-10.64-5.59-.1-.05,0-.2.1-.15,3.67,1.66,7.36,3.24,11,5.05,1.79.9,3.56,1.86,5.3,2.85,1.46.82,3,1.64,4.36,2.59-.41-1.22-.83-2.43-1.3-3.63A104.39,104.39,0,0,0,400.93,201.91Z" style="fill:#263238"></path><path d="M404.47,193c0-.12.19-.11.18,0-.15,2.24-.22,4.47-.46,6.7a.1.1,0,0,1-.2,0C404.07,197.41,404.31,195.19,404.47,193Z" style="fill:#263238"></path><path d="M384.31,200.43c2.63,1.06,5.29,2.07,7.91,3.17.07,0,0,.15,0,.12-2.66-1-5.28-2.08-7.92-3.11C384.15,200.56,384.2,200.39,384.31,200.43Z" style="fill:#263238"></path><path d="M380.31,182.38a68,68,0,0,1,7.48,4,.11.11,0,0,1-.12.19c-2.44-1.42-4.92-2.79-7.45-4.05C380.11,182.48,380.21,182.33,380.31,182.38Z" style="fill:#263238"></path><rect x="380.95" y="315.85" width="60.66" height="76.93" transform="translate(822.55 708.64) rotate(180)" style="fill:#455a64"></rect><rect x="442.67" y="338.48" width="3.1" height="132.88" style="fill:#263238"></rect><rect x="377.1" y="338.48" width="3.1" height="132.88" style="fill:#263238"></rect><rect x="408.23" y="338.48" width="3.1" height="132.88" style="fill:#263238"></rect><rect x="378.65" y="388.69" width="65.57" height="8.85" transform="translate(822.88 786.23) rotate(180)" style="fill:#263238"></rect></g></svg>
